<svg width="117" height="117" viewBox="0 0 117 117" fill="none" xmlns="http://www.w3.org/2000/svg">
<path d="M112.125 92.625C112.125 95.2109 111.098 97.6908 109.269 99.5193C107.441 101.348 104.961 102.375 102.375 102.375H14.625C12.0391 102.375 9.55919 101.348 7.73071 99.5193C5.90223 97.6908 4.875 95.2109 4.875 92.625V39C4.875 36.4141 5.90223 33.9342 7.73071 32.1057C9.55919 30.2772 12.0391 29.25 14.625 29.25H34.125L43.875 14.625H73.125L82.875 29.25H102.375C104.961 29.25 107.441 30.2772 109.269 32.1057C111.098 33.9342 112.125 36.4141 112.125 39V92.625Z" stroke="#FCBC0B" stroke-width="2" stroke-linecap="round" stroke-linejoin="round"/>
<path d="M58.5 82.875C69.2696 82.875 78 74.1445 78 63.375C78 52.6054 69.2696 43.875 58.5 43.875C47.7304 43.875 39 52.6054 39 63.375C39 74.1445 47.7304 82.875 58.5 82.875Z" stroke="#FCBC0B" stroke-width="2" stroke-linecap="round" stroke-linejoin="round"/>
</svg>
