<svg width="120" height="139" viewBox="0 0 120 139" fill="none" xmlns="http://www.w3.org/2000/svg">
<path d="M115.867 106.414C117.142 105.67 117.993 104.554 118.258 103.225C118.258 97.378 114.936 97.1119 112.544 97.1117C109.621 97.1557 103.562 97.2172 102.712 97.1108C101.862 97.0045 99.7003 95.2945 98.7259 94.4529L88.76 85.1503C85.8367 82.6253 77.5982 74.7846 76.9338 73.9873C76.4023 73.3494 76.5351 72.4813 76.6679 72.1269C77.6421 69.9123 79.6435 65.1377 79.856 63.7557C80.0685 62.3738 79.9442 59.3706 79.8555 58.0418C79.2169 48.687 69.8449 44.3985 65.2388 43.4236L56.6022 41.1639C53.3247 40.4549 46.2383 38.7712 44.1123 37.7079C41.5878 36.9104 33.2166 30.93 31.8879 29.9998C30.8248 29.2555 26.7499 25.7914 24.8454 24.1523C24.0924 23.6208 22.241 22.7436 20.8593 23.4876C19.1513 24.4072 19.6522 27.406 19.7922 28.2437L19.7968 28.2712C19.9031 28.9091 21.8787 32.2578 22.8532 33.8525C23.2521 37.0417 20.7276 36.7757 20.0632 36.6427C19.5317 36.5364 17.1842 34.4721 16.0769 33.4532C13.9509 31.5927 12.8436 31.5926 12.3565 31.5926C6.24461 32.2565 11.9587 41.16 12.3573 41.5587C12.6762 41.8776 12.6674 42.3117 12.6231 42.4888C12.4017 42.4888 11.7994 42.8874 11.1618 44.4819C10.5242 46.0765 10.8964 48.9556 11.1623 50.1958C11.8001 50.94 13.1113 53.0751 13.6871 54.0496C12.6242 54.581 12.27 56.0427 12.2258 56.7071C11.4821 61.1718 18.8257 65.4778 22.5904 67.0727C22.5905 68.4547 22.9449 70.129 23.1222 70.7934C23.1222 71.2186 26.1341 73.9828 27.6401 75.3118C27.4629 75.356 27.0289 75.604 26.7101 76.2418C26.3912 76.8796 26.5773 77.8364 26.7102 78.2351C26.923 79.7233 29.1021 81.1586 30.1651 81.6903C31.8658 81.6904 32.8226 83.6394 33.0884 84.6139C33.7529 85.8099 35.8789 87.5375 39.0678 88.468C41.6189 89.2123 46.0655 88.7786 47.9699 88.4688C47.8638 89.957 47.926 92.8095 47.9704 94.0498C48.0771 98.7272 53.4186 101.403 56.0761 102.156L69.8943 102.423C70.6915 102.556 78.7969 107.872 80.5243 109.334C81.9062 110.503 86.415 112.302 88.4967 113.055C90.2683 113.365 94.8744 113.8 99.1261 113.056C104.441 112.127 114.273 107.344 115.867 106.414Z" fill="#333333"/>
<path d="M71.6188 70.7978L73.6118 70.7979C76.1361 68.9378 76.5343 65.0843 76.9328 63.4898C77.331 59.1047 77.1981 57.9088 76.9322 56.0484C76.6663 54.1881 74.4073 51.3974 73.61 50.7329C72.1483 49.0053 70.1552 48.2079 66.9663 46.7459C63.7773 45.2839 57.5325 44.0874 54.6093 43.6885C51.6862 43.2897 44.7769 40.8972 42.2523 39.9668C39.7278 39.0364 32.6853 33.7206 32.021 33.3219C31.3566 32.9232 24.447 27.4744 23.7826 26.81C23.2511 26.2784 22.8525 26.2341 22.7196 26.2784C22.5868 26.4555 22.4008 27.0756 22.7198 28.1387C23.1185 29.4675 24.9789 32.524 25.6433 33.3213C26.3077 34.1187 30.9585 38.3713 35.742 41.5608C39.5688 44.1125 49.915 47.2316 54.6098 48.4723C57.1343 48.9597 63.3792 50.5991 68.1627 53.2572C74.142 56.5797 73.8765 59.5031 73.877 64.9512C73.8771 66.6786 72.3715 68.7603 71.6187 69.6018C71.0872 70.3459 71.3973 70.7092 71.6188 70.7978Z" fill="#FCBC0B"/>
<path d="M28.6999 40.0984C29.444 40.949 33.9706 43.8196 36.1409 45.1486L34.8122 45.1485C34.4136 44.8827 33.4037 44.2713 32.5534 43.9523C31.703 43.6333 28.6557 41.9588 27.2384 41.1614C26.3969 40.6741 24.6075 39.4868 24.1822 38.6364C23.757 37.7859 24.625 37.5734 25.1122 37.5734C25.998 38.0607 27.9557 39.2479 28.6999 40.0984Z" fill="#FCBC0B"/>
<path d="M70.289 58.1739C70.6079 58.2802 70.9535 59.99 71.0864 60.8316C70.9978 60.9202 70.7675 61.0442 70.5549 60.8315C70.3423 60.6189 70.1119 59.4141 70.0233 58.8383C69.979 58.5725 69.9701 58.0676 70.289 58.1739Z" fill="#FCBC0B"/>
<path d="M44.2489 81.4258L47.438 84.6153C46.7295 85.0581 44.6214 85.9438 41.8577 85.9436C39.0941 85.9433 36.5429 84.0828 35.6127 83.1525C35.5241 82.7982 35.4797 82.0895 36.0112 82.0895C36.5427 82.0896 41.7245 81.6471 44.2489 81.4258Z" fill="#FCBC0B"/>
<path d="M69.4951 96.8422C69.3886 94.8224 71.5761 90.3312 72.6832 88.3381C72.7717 88.1609 72.8957 87.6737 72.6831 87.1422C72.4173 86.4778 71.7529 85.9462 69.7598 84.6172C67.7666 83.2882 65.5078 82.7565 62.1862 82.7562C58.8645 82.7559 55.6757 83.5529 53.5499 84.6158C51.8493 85.1471 50.9813 86.6973 50.76 87.406L50.7606 94.9802C51.2924 97.9568 55.2342 99.1442 57.1386 99.3659L66.9708 99.3667C69.4156 99.3669 69.6723 97.6838 69.4951 96.8422Z" fill="#FCBC0B"/>
<path d="M98.3275 97.6421C100.56 99.7684 102.579 99.9014 103.244 99.7685L114.272 99.7695C119.188 103.623 109.938 106.28 104.706 108.273C93.5456 112.524 86.7248 110.132 84.1116 108.271C83.1815 107.607 81.1617 106.145 80.5239 105.613C79.8861 105.082 75.9176 102.468 74.013 101.228C70.9563 92.5902 82.3823 85.8143 83.1795 85.4157C83.8173 85.0968 84.5968 85.5487 84.9068 85.8145C88.4502 88.8711 96.0951 95.5158 98.3275 97.6421Z" fill="#FCBC0B"/>
<path d="M77.0675 84.352L79.7247 81.6946C80.0435 81.3758 79.8575 80.8531 79.7246 80.6316L73.0806 73.987C72.5934 73.7212 71.4064 73.349 70.5561 73.9867C69.4933 74.7839 69.0948 76.3785 68.8291 77.3086C68.6166 78.0527 69.095 78.7703 69.3608 79.0361C71.3982 80.5423 75.5794 83.6609 76.0046 84.0862C76.4298 84.5114 76.8904 84.4406 77.0675 84.352Z" fill="#FCBC0B"/>
<path d="M43.0522 70.2636C44.2214 70.4764 56.5604 70.8849 62.5838 71.0626C62.265 72.5509 60.5024 74.0744 59.661 74.6502C55.8078 74.6499 47.6232 74.5694 45.7098 74.2503C43.7965 73.9312 42.7867 73.1427 42.5209 72.7883C42.2108 71.8581 41.8829 70.0509 43.0522 70.2636Z" fill="#FCBC0B"/>
<path d="M62.7162 66.1461L62.7164 68.1393L44.2477 67.4733C43.6277 67.1189 42.2546 66.3038 41.7231 65.8785C41.1916 65.4533 41.3244 64.8154 41.4573 64.5497C41.6344 64.1953 42.0418 63.407 42.2543 63.0881C42.52 62.6894 42.7858 62.9552 42.9187 63.0881C43.025 63.1944 43.4945 63.3982 43.7159 63.4868C44.0348 63.8058 47.4806 64.2402 49.1636 64.4175C52.3967 64.5949 59.2615 64.9499 60.856 64.95C62.4504 64.9502 62.7605 65.7475 62.7162 66.1461Z" fill="#FCBC0B"/>
<path d="M43.1839 57.3742C50.8371 57.9064 57.1796 60.6089 59.3941 61.8936C59.5005 62.3188 58.9956 62.3365 58.7298 62.2922L47.436 61.0953C46.8159 61.0952 45.3367 60.9356 44.38 60.2977C43.4233 59.6598 43.184 58.0829 43.1839 57.3742Z" fill="#FCBC0B"/>
<path d="M40.3937 57.6398L40.3939 59.5001C37.9579 59.1456 32.6875 58.3567 31.093 58.0376C29.1 57.6388 25.2467 56.7083 21.3934 54.9805C17.5401 53.2527 15.6798 51.3922 13.8195 49.266C12.3312 47.565 13.7306 45.6339 14.6163 44.881C15.6793 45.5455 18.4165 47.3529 20.8615 49.2666C23.9176 51.6587 35.3446 56.1777 37.6034 56.3107C39.4104 56.4172 40.2165 57.2411 40.3937 57.6398Z" fill="#FCBC0B"/>
<path d="M38.4013 65.0809L38.9326 63.0878C39.1452 62.2905 38.6668 62.1354 38.4011 62.1576C35.1679 61.6257 28.1701 60.4292 26.0442 59.8975C23.9183 59.3658 19.312 57.2836 17.2746 56.3089C14.3514 55.1128 15.2817 57.7705 15.2818 58.302C15.2818 58.8335 18.2051 61.0927 18.8695 61.7572C19.5339 62.4217 22.59 63.6179 24.3173 64.0166C26.0446 64.4154 34.5482 65.6121 36.5412 65.7452C38.1357 65.8516 38.4456 65.3467 38.4013 65.0809Z" fill="#FCBC0B"/>
<path d="M58.9969 77.7064C60.1662 78.5569 59.4843 79.3896 58.9971 79.6996C58.3328 80.0096 56.4196 80.7359 54.0811 81.1609C51.7427 81.5859 49.0322 81.3376 47.9692 81.1603C45.3117 78.9277 46.8617 77.9268 47.9689 77.7054L58.9969 77.7064Z" fill="#FCBC0B"/>
<path d="M41.9897 76.1104C45.285 77.3864 43.3629 78.2366 41.99 78.5023C39.2264 79.1399 34.018 79.1217 31.7592 79.0329C26.7632 77.3316 29.6774 76.3751 31.7589 76.1095L41.9897 76.1104Z" fill="#FCBC0B"/>
<path d="M26.0449 67.6046L30.031 67.6049C33.1312 67.7381 39.4381 68.5359 39.8633 69.0675C40.2885 69.5991 39.1992 72.1237 38.6678 73.1867L29.5 73.1859C29.0128 72.9201 27.8523 71.8569 26.5767 70.7938C25.3011 69.7306 25.6907 68.0918 26.0449 67.6046Z" fill="#FCBC0B"/>
<path d="M62.5845 80.2315C63.0098 80.763 64.2675 80.0101 64.8432 79.5672C65.3747 79.2145 66.5702 76.0541 67.1015 74.518C71.2196 65.3496 67.7646 59.7683 67.1001 58.4394C66.4357 57.1105 64.4425 55.3829 63.1138 54.4526C61.785 53.5223 58.0646 52.3261 56.3373 52.0602C54.61 51.7943 47.0364 50.199 45.3091 50.066C43.5818 49.9329 39.1971 49.0024 37.3369 48.6036C35.4768 48.2048 33.3508 47.4073 31.6235 46.6099C29.8961 45.8124 25.3784 43.1544 23.651 42.0912C21.9236 41.028 13.8182 35.4463 13.4196 34.9147C13.1007 34.4895 12.6666 34.5603 12.4895 34.6489C12.1795 35.1361 12.0645 36.7484 14.0843 39.2999C16.6091 42.4892 19.6653 45.1471 22.057 46.7419C24.0502 48.6024 31.2253 51.2607 33.617 52.3239C36.0087 53.3872 49.1628 55.7802 53.5475 56.7107C57.9322 57.6413 62.5827 59.502 63.7788 62.1597C64.9748 64.8175 65.3735 65.8806 65.5067 69.4684C65.507 72.5246 63.6027 75.0492 62.1856 76.1121C62.1414 77.2637 62.1593 79.6999 62.5845 80.2315Z" fill="#FCBC0B"/>
</svg>
