<svg width="462" height="354" viewBox="0 0 462 354" fill="none" xmlns="http://www.w3.org/2000/svg">
<g clip-path="url(#clip0)">
<path opacity="0.1" d="M450.804 240.689C450.39 240.991 450.009 241.284 449.604 241.569C448.107 242.625 446.54 243.579 444.914 244.423C436.396 248.904 425.895 251.094 415.668 252.58C392.73 255.918 369.311 256.566 345.992 257.202C282.984 258.929 219.823 260.651 156.968 256.674C132.134 255.104 106.753 252.477 84.2495 244.423C81.0238 243.272 77.8616 242.003 74.7629 240.615C68.4923 237.802 62.47 234.378 57.4618 230.289C52.7558 226.456 48.9396 222.053 46.659 217.047C41.9033 206.623 44.4198 194.913 49.8502 184.695C52.1055 180.561 54.649 176.59 57.4618 172.812C61.6546 167.058 66.2779 161.47 70.4955 155.721C85.5036 135.284 95.2965 109.428 81.4432 88.467C77.4615 82.445 71.7083 77.1582 68.4633 70.8719C64.3243 62.8302 64.643 53.9005 65.9592 45.2269C66.1303 44.1254 66.311 43.035 66.5014 41.9557C68.7489 29.0939 72.979 15.2367 86.021 7.20742C99.5679 -1.13579 118.806 -0.714502 135.619 2.25106C161.765 6.91004 185.883 16.608 210.257 25.3642C234.632 34.1205 260.132 42.1209 286.92 42.98C310.574 43.7399 338.165 38.0525 353.864 23.2702C369.112 8.91324 397.775 7.8187 418.433 16.4923C432.613 22.4441 443.192 33.1664 447.654 45.2269C448.558 47.6482 449.208 50.1562 449.595 52.711C449.953 55.0458 450.07 57.4111 449.943 59.7697C449.881 60.9344 449.761 62.0868 449.595 63.2267C446.143 87.0255 421.297 105.798 406.194 127.056C398.814 137.44 393.603 149.914 398.677 161.111C406.417 178.173 433.333 184.24 449.587 196.937C452.646 199.248 455.339 202.005 457.575 205.115C465.46 216.416 462.551 231.677 450.804 240.689Z" fill="#FCBC0B"/>
<path d="M106.782 134.177C106.782 134.177 87.7429 100.507 59.0513 90.8089C47.0109 86.7364 36.502 79.0788 29.3167 68.6126C25.915 63.6435 22.9778 58.3731 20.542 52.8679" stroke="#535461" stroke-width="2" stroke-miterlimit="10"/>
<path d="M2.50002 46.6353C5.76983 49.7867 20.9931 53.0909 20.9931 53.0909C20.9931 53.0909 17.268 38.0071 13.9899 34.8391C12.4141 33.3501 10.3138 32.5407 8.14418 32.5864C5.97452 32.632 3.91027 33.529 2.39878 35.0829C0.887293 36.6369 0.0503348 38.7226 0.0692846 40.8881C0.0882344 43.0536 0.961565 45.1244 2.50002 46.6518V46.6353Z" fill="#FCBC0B"/>
<path d="M11.1134 73.9325C15.5793 74.8164 30.1528 69.3107 30.1528 69.3107C30.1528 69.3107 18.7912 58.671 14.3211 57.7871C12.1966 57.4138 10.0101 57.8858 8.23016 59.102C6.45023 60.3181 5.21852 62.1817 4.79901 64.2932C4.37949 66.4048 4.80554 68.5963 5.98586 70.3981C7.16618 72.1999 9.00684 73.4687 11.1134 73.9325Z" fill="#FCBC0B"/>
<path d="M42.4663 103.481C46.7709 101.994 56.539 89.9044 56.539 89.9044C56.539 89.9044 41.3571 86.439 37.0566 87.926C36.0015 88.2531 35.0229 88.7884 34.179 89.5001C33.3351 90.2119 32.6431 91.0856 32.1441 92.0693C31.6451 93.053 31.3492 94.1268 31.274 95.2268C31.1988 96.3269 31.3458 97.4308 31.7064 98.473C32.0669 99.5153 32.6336 100.475 33.3728 101.294C34.112 102.114 35.0087 102.777 36.0096 103.244C37.0105 103.711 38.0952 103.972 39.1994 104.013C40.3035 104.054 41.4047 103.873 42.4374 103.481H42.4663Z" fill="#FCBC0B"/>
<path d="M71.2323 120.493C75.7273 119.75 87.4158 109.486 87.4158 109.486C87.4158 109.486 73.0411 103.51 68.5461 104.249C66.3874 104.604 64.4587 105.801 63.1841 107.576C61.9096 109.35 61.3937 111.557 61.7499 113.711C62.1061 115.866 63.3053 117.79 65.0836 119.062C66.8619 120.334 69.0736 120.849 71.2323 120.493Z" fill="#FCBC0B"/>
<path d="M42.8346 57.5228C42.8346 62.0661 34.598 75.2542 34.598 75.2542C34.598 75.2542 26.3448 62.0744 26.3407 57.5311C26.3161 56.4348 26.5112 55.3447 26.9146 54.3248C27.318 53.3048 27.9215 52.3755 28.6897 51.5916C29.458 50.8076 30.3754 50.1846 31.3883 49.7594C32.4011 49.3341 33.4888 49.115 34.5877 49.115C35.6865 49.115 36.7742 49.3341 37.7871 49.7594C38.7999 50.1846 39.7173 50.8076 40.4856 51.5916C41.2538 52.3755 41.8574 53.3048 42.2607 54.3248C42.6641 55.3447 42.8592 56.4348 42.8346 57.5311V57.5228Z" fill="#FCBC0B"/>
<path d="M76.2281 77.8728C74.8664 82.2096 63.0495 92.3288 63.0495 92.3288C63.0495 92.3288 59.1257 77.2739 60.4709 72.9164C61.1939 70.9213 62.6609 69.2818 64.5659 68.3398C66.4708 67.3979 68.6667 67.2263 70.6954 67.8608C72.7241 68.4953 74.429 69.8869 75.4544 71.7454C76.4799 73.6038 76.7467 75.7856 76.1991 77.8356L76.2281 77.8728Z" fill="#FCBC0B"/>
<path d="M105.963 102.056C105.358 106.562 95.4248 118.527 95.4248 118.527C95.4248 118.527 89.0094 104.369 89.6302 99.8625C89.9517 97.7251 91.1026 95.7997 92.8345 94.5018C94.5664 93.204 96.7404 92.6379 98.8869 92.9259C101.033 93.2139 102.98 94.3327 104.307 96.0409C105.634 97.7491 106.235 99.9095 105.979 102.056H105.963Z" fill="#FCBC0B"/>
<path opacity="0.25" d="M2.50002 46.6353C5.76983 49.7867 20.9931 53.0909 20.9931 53.0909C20.9931 53.0909 17.268 38.0071 13.9899 34.8391C12.4141 33.3501 10.3138 32.5407 8.14418 32.5864C5.97452 32.632 3.91027 33.529 2.39878 35.0829C0.887293 36.6369 0.0503348 38.7226 0.0692846 40.8881C0.0882344 43.0536 0.961565 45.1244 2.50002 46.6518V46.6353Z" fill="black"/>
<path opacity="0.25" d="M11.1134 73.9325C15.5793 74.8164 30.1528 69.3107 30.1528 69.3107C30.1528 69.3107 18.7912 58.671 14.3211 57.7871C12.1966 57.4138 10.0101 57.8858 8.23016 59.102C6.45023 60.3181 5.21852 62.1817 4.79901 64.2932C4.37949 66.4048 4.80554 68.5963 5.98586 70.3981C7.16618 72.1999 9.00684 73.4687 11.1134 73.9325Z" fill="black"/>
<path opacity="0.25" d="M42.4663 103.481C46.7709 101.994 56.539 89.9044 56.539 89.9044C56.539 89.9044 41.3571 86.439 37.0566 87.926C36.0015 88.2531 35.0229 88.7884 34.179 89.5001C33.3351 90.2119 32.6431 91.0856 32.1441 92.0693C31.6451 93.053 31.3492 94.1268 31.274 95.2268C31.1988 96.3269 31.3458 97.4308 31.7064 98.473C32.0669 99.5153 32.6336 100.475 33.3728 101.294C34.112 102.114 35.0087 102.777 36.0096 103.244C37.0105 103.711 38.0952 103.972 39.1994 104.013C40.3035 104.054 41.4047 103.873 42.4374 103.481H42.4663Z" fill="black"/>
<path opacity="0.25" d="M71.2323 120.493C75.7273 119.75 87.4158 109.486 87.4158 109.486C87.4158 109.486 73.0411 103.51 68.5461 104.249C66.3874 104.604 64.4587 105.801 63.1841 107.576C61.9096 109.35 61.3937 111.557 61.7499 113.711C62.1061 115.866 63.3053 117.79 65.0836 119.062C66.8619 120.334 69.0736 120.849 71.2323 120.493Z" fill="black"/>
<path opacity="0.25" d="M42.8346 57.5228C42.8346 62.0661 34.598 75.2542 34.598 75.2542C34.598 75.2542 26.3448 62.0744 26.3407 57.5311C26.3161 56.4348 26.5112 55.3447 26.9146 54.3248C27.318 53.3048 27.9215 52.3755 28.6897 51.5916C29.458 50.8076 30.3754 50.1846 31.3883 49.7594C32.4011 49.3341 33.4888 49.115 34.5877 49.115C35.6865 49.115 36.7742 49.3341 37.7871 49.7594C38.7999 50.1846 39.7173 50.8076 40.4856 51.5916C41.2538 52.3755 41.8574 53.3048 42.2607 54.3248C42.6641 55.3447 42.8592 56.4348 42.8346 57.5311V57.5228Z" fill="black"/>
<path opacity="0.25" d="M76.2281 77.8728C74.8664 82.2096 63.0495 92.3288 63.0495 92.3288C63.0495 92.3288 59.1257 77.2739 60.4709 72.9164C61.1939 70.9213 62.6609 69.2818 64.5659 68.3398C66.4708 67.3979 68.6667 67.2263 70.6954 67.8608C72.7241 68.4953 74.429 69.8869 75.4544 71.7454C76.4799 73.6038 76.7467 75.7856 76.1991 77.8356L76.2281 77.8728Z" fill="black"/>
<path opacity="0.25" d="M105.963 102.056C105.358 106.562 95.4248 118.527 95.4248 118.527C95.4248 118.527 89.0094 104.369 89.6302 99.8625C89.9517 97.7251 91.1026 95.7997 92.8345 94.5018C94.5664 93.204 96.7404 92.6379 98.8869 92.9259C101.033 93.2139 102.98 94.3327 104.307 96.0409C105.634 97.7491 106.235 99.9095 105.979 102.056H105.963Z" fill="black"/>
<path d="M105.685 133.508C105.685 133.508 101.96 95.0218 79.6593 74.552C70.3093 65.961 63.8111 54.7266 61.4891 42.2365C60.3992 36.3166 59.8561 30.3093 59.8666 24.2903" stroke="#535461" stroke-width="2" stroke-miterlimit="10"/>
<path d="M45.8975 11.3088C47.6027 15.5259 60.1894 24.6745 60.1894 24.6745C60.1894 24.6745 62.9005 9.37171 61.1994 5.15467C60.3815 3.12814 58.7905 1.5088 56.7762 0.652884C54.7619 -0.203029 52.4894 -0.2254 50.4586 0.590691C48.4278 1.40678 46.8051 2.99449 45.9474 5.00453C45.0896 7.01457 45.0672 9.28229 45.885 11.3088H45.8975Z" fill="#FCBC0B"/>
<path d="M42.6733 39.746C46.3984 42.3605 61.9486 43.2155 61.9486 43.2155C61.9486 43.2155 55.9181 28.8998 52.193 26.2853C50.4042 25.0256 48.1872 24.5265 46.0298 24.898C43.8723 25.2694 41.951 26.4808 40.6886 28.2658C39.4262 30.0508 38.9261 32.2631 39.2983 34.4161C39.6705 36.569 40.8845 38.4863 42.6733 39.746Z" fill="#FCBC0B"/>
<path d="M59.3575 79.4299C63.9104 79.814 77.7512 72.714 77.7512 72.714C77.7512 72.714 65.2804 63.4085 60.7399 63.0285C59.6474 62.9124 58.5427 63.0153 57.4906 63.3311C56.4385 63.6469 55.4602 64.1692 54.6132 64.8674C53.7661 65.5656 53.0674 66.4256 52.5579 67.397C52.0485 68.3684 51.7387 69.4315 51.6466 70.524C51.5545 71.6165 51.682 72.7163 52.0217 73.759C52.3614 74.8016 52.9064 75.766 53.6247 76.5956C54.3429 77.4252 55.22 78.1033 56.2045 78.59C57.189 79.0767 58.2609 79.3623 59.3575 79.4299Z" fill="#FCBC0B"/>
<path d="M78.7446 106.624C83.1568 107.764 98.0117 103.105 98.0117 103.105C98.0117 103.105 87.2958 91.8291 82.8878 90.6891C80.7836 90.1804 78.5634 90.5176 76.7062 91.6279C74.8489 92.7382 73.5035 94.5326 72.9603 96.624C72.4171 98.7153 72.7196 100.936 73.8025 102.807C74.8854 104.678 76.6619 106.048 78.7488 106.624H78.7446Z" fill="#FCBC0B"/>
<path d="M78.3514 37.5734C76.5096 41.7285 63.6207 50.4476 63.6207 50.4476C63.6207 50.4476 61.427 35.0663 63.2689 30.9071C63.6954 29.9008 64.3185 28.9893 65.1017 28.2258C65.8849 27.4623 66.8126 26.862 67.8307 26.46C68.8488 26.0579 69.9369 25.8621 71.0316 25.884C72.1263 25.906 73.2057 26.1451 74.2068 26.5876C75.2079 27.0301 76.1107 27.667 76.8626 28.4613C77.6145 29.2555 78.2004 30.1912 78.5862 31.2138C78.972 32.2363 79.1499 33.3253 79.1096 34.4171C79.0693 35.509 78.8116 36.5819 78.3514 37.5734Z" fill="#FCBC0B"/>
<path d="M100.619 69.6576C97.6144 73.0734 82.7015 77.5465 82.7015 77.5465C82.7015 77.5465 85.2181 62.2148 88.2271 58.7991C88.9416 57.9871 89.8093 57.3235 90.7808 56.8462C91.7523 56.3689 92.8085 56.0872 93.8891 56.0172C94.9697 55.9472 96.0535 56.0902 97.0786 56.4382C98.1038 56.7862 99.0502 57.3323 99.8639 58.0453C100.678 58.7582 101.343 59.6242 101.821 60.5936C102.299 61.5631 102.582 62.617 102.652 63.6953C102.722 64.7736 102.578 65.8552 102.23 66.8782C101.881 67.9012 101.334 68.8456 100.619 69.6576Z" fill="#FCBC0B"/>
<path d="M118.003 103.811C115.619 107.685 101.679 114.608 101.679 114.608C101.679 114.608 101.563 99.0695 103.947 95.1953C105.092 93.333 106.931 92.001 109.061 91.4921C111.19 90.9832 113.434 91.3391 115.3 92.4817C117.166 93.6242 118.501 95.4597 119.011 97.5844C119.521 99.709 119.165 101.949 118.02 103.811H118.003Z" fill="#FCBC0B"/>
<path opacity="0.1" d="M168.938 351.778C194.432 351.778 215.1 349.093 215.1 345.781C215.1 342.468 194.432 339.783 168.938 339.783C143.443 339.783 122.775 342.468 122.775 345.781C122.775 349.093 143.443 351.778 168.938 351.778Z" fill="#FCBC0B"/>
<path opacity="0.1" d="M75.6942 347.714C83.4389 347.714 89.7172 346.641 89.7172 345.318C89.7172 343.995 83.4389 342.923 75.6942 342.923C67.9496 342.923 61.6713 343.995 61.6713 345.318C61.6713 346.641 67.9496 347.714 75.6942 347.714Z" fill="#FCBC0B"/>
<path d="M78.7406 318.645C78.7406 318.645 81.0129 321.614 77.6893 326.079C74.3656 330.544 71.6256 334.34 72.7225 337.136C72.7225 337.136 77.7348 328.813 81.8283 328.698C85.9217 328.582 83.2355 323.651 78.7406 318.645Z" fill="#FCBC0B"/>
<path opacity="0.1" d="M78.7405 318.645C78.939 318.932 79.0951 319.246 79.204 319.578C83.1858 324.245 85.3091 328.603 81.4805 328.71C77.9168 328.813 73.6371 335.174 72.6147 336.781C72.6485 336.905 72.6886 337.028 72.7348 337.148C72.7348 337.148 77.7471 328.826 81.8406 328.71C85.9341 328.595 83.2354 323.651 78.7405 318.645Z" fill="black"/>
<path d="M82.9665 322.428C82.9665 323.473 82.8506 324.32 82.7057 324.32C82.5608 324.32 82.4408 323.494 82.4408 322.428C82.4408 321.362 82.5898 321.875 82.7347 321.875C82.8795 321.875 82.9665 321.383 82.9665 322.428Z" fill="#FFD037"/>
<path d="M84.4192 323.675C83.5003 324.175 82.6974 324.477 82.627 324.349C82.5566 324.221 83.2479 323.713 84.1667 323.213C85.0856 322.713 84.7213 323.076 84.7917 323.213C84.8621 323.349 85.338 323.176 84.4192 323.675Z" fill="#FFD037"/>
<path d="M66.7291 318.645C66.7291 318.645 64.4568 321.614 67.7804 326.079C71.104 330.544 73.844 334.34 72.7472 337.136C72.7472 337.136 67.7348 328.813 63.6414 328.698C59.5479 328.582 62.2424 323.651 66.7291 318.645Z" fill="#FCBC0B"/>
<path opacity="0.1" d="M66.729 318.645C66.5305 318.932 66.3744 319.246 66.2655 319.578C62.2837 324.245 60.1604 328.603 63.989 328.71C67.5568 328.813 71.8324 335.174 72.8548 336.781C72.8229 336.906 72.7828 337.029 72.7347 337.148C72.7347 337.148 67.7224 328.826 63.6289 328.71C59.5354 328.595 62.2424 323.651 66.729 318.645Z" fill="black"/>
<path d="M62.5032 322.428C62.5032 323.473 62.6191 324.32 62.7639 324.32C62.9088 324.32 63.0288 323.494 63.0288 322.428C63.0288 321.362 62.8798 321.875 62.735 321.875C62.5901 321.875 62.5032 321.383 62.5032 322.428Z" fill="#FFD037"/>
<path d="M61.0545 323.675C61.9734 324.175 62.7722 324.477 62.8426 324.349C62.9129 324.221 62.2217 323.713 61.3028 323.213C60.384 322.713 60.7482 323.076 60.6779 323.213C60.6075 323.349 60.1356 323.176 61.0545 323.675Z" fill="#FFD037"/>
<path d="M63.2274 336.76C63.2274 336.76 69.5849 336.562 71.5054 335.203C73.4259 333.844 81.2818 332.213 81.7578 334.398C82.2337 336.583 91.3106 345.256 84.1336 345.314C76.9565 345.372 67.4575 344.199 65.5453 343.038C63.633 341.878 63.2274 336.76 63.2274 336.76Z" fill="#A8A8A8"/>
<path opacity="0.2" d="M84.2577 344.554C77.0807 344.612 67.5817 343.439 65.6694 342.278C64.2125 341.39 63.633 338.214 63.4385 336.752H63.2274C63.2274 336.752 63.6413 341.865 65.5411 343.03C67.4409 344.195 76.9524 345.363 84.1294 345.306C86.1989 345.306 86.9191 344.554 86.8777 343.464C86.5921 344.133 85.8016 344.542 84.2577 344.554Z" fill="black"/>
<path d="M275.534 336.516C275.534 336.516 258.034 335.463 260.099 347.701C260.099 347.701 259.685 349.861 261.651 350.845C261.651 350.845 261.685 349.94 263.448 350.246C264.075 350.351 264.713 350.382 265.348 350.336C266.207 350.28 267.024 349.943 267.674 349.378C267.674 349.378 272.591 347.354 274.503 339.329C274.503 339.329 275.919 337.578 275.865 337.128L272.91 338.367C272.91 338.367 273.92 340.494 273.125 342.262C273.125 342.262 273.03 338.445 272.463 338.544C272.347 338.544 270.927 339.28 270.927 339.28C270.927 339.28 272.665 342.997 271.341 345.673C271.341 345.673 271.838 341.13 270.372 339.548L268.303 340.758C268.303 340.758 270.331 344.583 268.957 347.705C268.957 347.705 269.309 342.918 267.868 341.052L265.985 342.518C265.985 342.518 267.889 346.289 266.726 348.878C266.726 348.878 266.577 343.307 265.575 342.885C265.575 342.885 263.92 344.335 263.675 344.951C263.675 344.951 264.979 347.685 264.172 349.13C264.172 349.13 263.675 345.413 263.266 345.413C263.266 345.413 261.61 347.891 261.453 349.543C261.453 349.543 261.527 347.036 262.868 345.161C261.922 345.341 261.048 345.793 260.356 346.462C260.356 346.462 260.613 344.723 263.253 344.571C263.253 344.571 264.611 342.704 264.975 342.592C264.975 342.592 262.326 342.369 260.72 343.079C260.72 343.079 262.132 341.427 265.459 342.183L267.318 340.672C267.318 340.672 263.833 340.192 262.351 340.721C262.351 340.721 264.056 339.267 267.819 340.308L269.847 339.102C269.847 339.102 266.871 338.462 265.099 338.689C265.099 338.689 266.97 337.681 270.439 338.772L271.887 338.123C271.887 338.123 269.706 337.71 269.069 337.632C268.431 337.553 268.398 337.388 268.398 337.388C269.778 337.158 271.196 337.316 272.492 337.842C272.492 337.842 275.588 336.711 275.534 336.516Z" fill="#FCBC0B"/>
<path opacity="0.1" d="M263.481 354C270.32 354 275.865 353.064 275.865 351.91C275.865 350.756 270.32 349.82 263.481 349.82C256.641 349.82 251.097 350.756 251.097 351.91C251.097 353.064 256.641 354 263.481 354Z" fill="#FCBC0B"/>
<path d="M244.876 337.169C244.876 337.169 235.009 336.574 236.184 343.476C236.125 343.826 236.178 344.186 236.335 344.504C236.493 344.822 236.747 345.082 237.062 345.248C237.062 345.248 237.062 344.736 238.076 344.909C238.429 344.967 238.787 344.985 239.144 344.963C239.628 344.928 240.088 344.738 240.456 344.422C240.456 344.422 243.229 343.278 244.309 338.755C244.309 338.755 245.104 337.768 245.075 337.516L243.419 338.222C243.419 338.222 243.986 339.424 243.539 340.42C243.539 340.42 243.485 338.268 243.167 338.317C243.1 338.317 242.302 338.73 242.302 338.73C242.302 338.73 243.278 340.795 242.542 342.336C242.542 342.336 242.819 339.763 241.995 338.879L240.824 339.565C240.824 339.565 241.966 341.721 241.192 343.48C241.192 343.48 241.391 340.779 240.576 339.73L239.516 340.556C239.516 340.556 240.588 342.683 239.93 344.141C239.93 344.141 239.843 340.998 239.28 340.762C238.877 341.102 238.517 341.489 238.208 341.915C238.208 341.915 238.945 343.459 238.49 344.273C238.49 344.273 238.208 342.179 237.98 342.171C237.98 342.171 237.053 343.559 236.958 344.509C237 343.627 237.274 342.772 237.753 342.03C237.22 342.131 236.728 342.385 236.337 342.761C236.337 342.761 236.482 341.778 237.993 341.696C237.993 341.696 238.754 340.643 238.961 340.581C238.961 340.581 237.467 340.453 236.561 340.853C236.561 340.853 237.36 339.928 239.235 340.349L240.282 339.494C240.282 339.494 238.316 339.226 237.484 339.523C237.484 339.523 238.444 338.697 240.567 339.3L241.706 338.623C240.828 338.429 239.929 338.351 239.032 338.392C239.032 338.392 240.087 337.826 242.041 338.437L242.869 338.074C242.869 338.074 241.627 337.83 241.283 337.793C240.94 337.755 240.903 337.656 240.903 337.656C241.681 337.527 242.481 337.616 243.212 337.912C243.212 337.912 244.905 337.281 244.876 337.169Z" fill="#FCBC0B"/>
<path opacity="0.1" d="M238.08 347.028C241.936 347.028 245.062 346.501 245.062 345.851C245.062 345.201 241.936 344.674 238.08 344.674C234.223 344.674 231.097 345.201 231.097 345.851C231.097 346.501 234.223 347.028 238.08 347.028Z" fill="#FCBC0B"/>
<path d="M263.655 322.544C263.655 322.544 251.747 321.825 253.15 330.156C253.078 330.578 253.142 331.013 253.332 331.397C253.522 331.781 253.829 332.096 254.21 332.295C254.21 332.295 254.21 331.68 255.431 331.882C255.857 331.95 256.291 331.971 256.722 331.944C257.307 331.902 257.863 331.674 258.307 331.292C258.307 331.292 261.656 329.912 262.955 324.448C262.955 324.448 263.92 323.258 263.882 322.953L261.871 323.808C261.871 323.808 262.558 325.257 262.02 326.459C262.02 326.459 261.954 323.861 261.565 323.923C261.49 323.923 260.522 324.423 260.522 324.423C260.522 324.423 261.705 326.947 260.811 328.776C260.811 328.776 261.151 325.67 260.153 324.605L258.738 325.431C258.738 325.431 260.12 328.033 259.185 330.16C259.185 330.16 259.425 326.901 258.44 325.617L257.157 326.612C257.157 326.612 258.456 329.177 257.666 330.941C257.666 330.941 257.562 327.149 256.879 326.86C256.879 326.86 255.758 327.847 255.588 328.252C255.588 328.252 256.478 330.115 255.923 331.098C255.923 331.098 255.588 328.574 255.311 328.562C255.311 328.562 254.193 330.214 254.069 331.383C254.122 330.322 254.453 329.294 255.029 328.4C254.385 328.523 253.791 328.83 253.32 329.284C253.32 329.284 253.493 328.099 255.306 327.996C255.306 327.996 256.229 326.728 256.478 326.649C256.478 326.649 254.673 326.5 253.58 326.984C253.58 326.984 254.541 325.864 256.809 326.372L258.075 325.344C258.075 325.344 255.7 325.018 254.694 325.377C254.694 325.377 255.853 324.39 258.419 325.109L259.797 324.283C259.797 324.283 257.773 323.869 256.569 324.006C256.569 324.006 257.839 323.32 260.203 324.059L261.188 323.622C261.188 323.622 259.702 323.328 259.267 323.283C258.833 323.238 258.812 323.118 258.812 323.118C259.752 322.962 260.716 323.069 261.598 323.428C261.598 323.428 263.696 322.676 263.655 322.544Z" fill="#FCBC0B"/>
<path opacity="0.1" d="M255.455 334.443C260.112 334.443 263.886 333.807 263.886 333.022C263.886 332.238 260.112 331.601 255.455 331.601C250.799 331.601 247.024 332.238 247.024 333.022C247.024 333.807 250.799 334.443 255.455 334.443Z" fill="#FCBC0B"/>
<path d="M450.365 241.486V39.4609H56.601V229.897C61.6298 234.085 67.6769 237.608 73.9848 240.503C77.0918 241.932 80.265 243.239 83.5045 244.423H445.668L450.365 241.486Z" fill="url(#paint0_linear)"/>
<path d="M449.604 241.569V45.2433H57.4618V230.322C62.47 234.395 68.4922 237.819 74.7628 240.648C77.8588 242.025 81.021 243.294 84.2494 244.456H444.914L449.604 241.569Z" fill="white"/>
<path d="M449.604 40.035H57.4659V50.4186H449.604V40.035Z" fill="#5A5773"/>
<path d="M65.2969 47.9115C66.7828 47.9115 67.9873 46.7095 67.9873 45.2268C67.9873 43.7441 66.7828 42.5421 65.2969 42.5421C63.8111 42.5421 62.6066 43.7441 62.6066 45.2268C62.6066 46.7095 63.8111 47.9115 65.2969 47.9115Z" fill="white"/>
<path d="M72.5402 47.9115C74.026 47.9115 75.2306 46.7095 75.2306 45.2268C75.2306 43.7441 74.026 42.5421 72.5402 42.5421C71.0544 42.5421 69.8499 43.7441 69.8499 45.2268C69.8499 46.7095 71.0544 47.9115 72.5402 47.9115Z" fill="white"/>
<path d="M79.7835 47.9115C81.2693 47.9115 82.4738 46.7095 82.4738 45.2268C82.4738 43.7441 81.2693 42.5421 79.7835 42.5421C78.2977 42.5421 77.0931 43.7441 77.0931 45.2268C77.0931 46.7095 78.2977 47.9115 79.7835 47.9115Z" fill="white"/>
<path d="M222.451 73.2385H157.675V113.856H222.451V73.2385Z" fill="#FCBC0B"/>
<path opacity="0.2" d="M132.763 73.2385H67.9873V113.856H132.763V73.2385Z" fill="#5A5773"/>
<path opacity="0.2" d="M312.139 73.2385H247.364V113.856H312.139V73.2385Z" fill="#5A5773"/>
<path opacity="0.2" d="M132.763 131.306H67.9873V171.924H132.763V131.306Z" fill="#5A5773"/>
<path opacity="0.2" d="M222.451 131.306H157.675V171.924H222.451V131.306Z" fill="#5A5773"/>
<path opacity="0.2" d="M312.139 131.306H247.364V171.924H312.139V131.306Z" fill="#5A5773"/>
<path opacity="0.2" d="M132.763 189.37H67.9873V229.988H132.763V189.37Z" fill="#5A5773"/>
<path opacity="0.2" d="M222.451 189.37H157.675V229.988H222.451V189.37Z" fill="#5A5773"/>
<path opacity="0.2" d="M312.139 189.37H247.364V229.988H312.139V189.37Z" fill="#5A5773"/>
<path d="M206.578 108.817L202.108 110.395L200.485 107.71C199.244 105.645 197.522 102.82 196.251 100.767C194.008 97.1571 196.942 91.6555 196.942 91.6555C196.942 91.6555 197.472 86.1333 199.359 84.4316C201.247 82.73 201.772 91.6555 201.772 91.6555C209.351 95.092 205.291 103.175 205.291 103.175L206.027 106.38L206.578 108.817Z" fill="#EFB7B9"/>
<path opacity="0.1" d="M206.578 108.817L202.108 110.395L200.485 107.71V107.475C200.485 107.475 203.047 105.719 206.036 106.38L206.578 108.817Z" fill="black"/>
<path d="M199.359 126.908L201.599 125.016L200.477 107.991C200.477 107.991 206.272 104.034 210.56 110.225C210.56 110.225 210.386 114.009 210.56 115.041C210.733 116.074 209.355 117.106 210.56 118.135C211.764 119.163 210.56 122.608 210.56 122.608C210.56 122.608 211.921 125.016 212.782 125.702C213.643 126.387 214.508 132.066 212.782 133.268C211.056 134.47 207.819 137.225 207.819 138.427C207.819 139.629 203.68 142.557 203.68 142.557L200.046 137.762L199.359 126.908Z" fill="#FF6484"/>
<path d="M150.933 230.256C142.58 226.721 144.435 218.084 146.008 213.735C146.322 212.854 146.691 211.993 147.113 211.158L151.798 208.32C151.798 208.32 152.754 210.753 153.776 214.016C156.148 221.607 158.876 233.622 150.933 230.256Z" fill="#EFB7B9"/>
<path d="M162.414 309.058C161.849 310.158 161.432 311.327 161.173 312.536C160.759 314.481 160.579 316.467 160.635 318.455C160.668 319.83 160.784 320.73 160.784 320.73L151.479 327.116C151.479 327.116 151.533 326.368 151.624 325.27C151.864 322.345 152.365 316.918 152.837 316.216C153.164 315.729 153.391 313.771 153.536 311.953C153.681 310.136 153.739 308.542 153.739 308.542C153.739 308.542 164.935 304.354 162.414 309.058Z" fill="#EFB7B9"/>
<path d="M184.389 313.639C184.389 313.639 184.389 315.415 184.322 317.48C184.256 319.545 184.132 321.982 183.871 323.118C183.631 324.159 183.615 326.071 183.66 327.835C183.722 329.9 183.871 331.758 183.871 331.758C183.871 331.758 174.372 322.796 175.341 322.085C175.601 321.895 175.858 321.131 176.094 320.115C176.384 318.876 176.644 317.224 176.839 315.819C177.071 314.147 177.216 312.8 177.216 312.8L184.389 313.639Z" fill="#EFB7B9"/>
<path opacity="0.1" d="M162.415 309.058C161.849 310.158 161.432 311.327 161.173 312.536C158.626 312.469 156.084 312.275 153.557 311.953C153.698 310.177 153.76 308.542 153.76 308.542C153.76 308.542 164.935 304.354 162.415 309.058Z" fill="black"/>
<path opacity="0.1" d="M184.389 313.639C184.389 313.639 184.389 315.415 184.322 317.48C181.359 318.236 178.312 316.724 176.839 315.828C177.071 314.155 177.216 312.808 177.216 312.808L184.389 313.639Z" fill="black"/>
<path d="M203.838 225.787C200.046 234.048 198.494 243.845 198.494 243.845L197.116 252.105C197.116 252.105 197.807 255.715 197.116 257.091C196.425 258.466 195.047 260.705 195.047 260.705C195.047 260.705 196.081 269.131 195.047 269.99C194.012 270.849 195.047 276.007 195.047 276.007L191.599 293.355L186.773 315.708C182.12 319.495 175.929 314.68 175.929 314.68L177.294 300.062C177.294 300.062 179.364 274.454 178.503 273.405C177.642 272.356 178.846 269.106 178.846 269.106C178.846 269.106 180.055 266.008 179.194 264.806C178.333 263.604 179.364 261.023 179.364 261.023C179.364 261.023 179.02 250.532 180.055 248.124C181.09 245.716 180.055 230.822 180.055 230.822L179.641 226.184L179.401 223.615L179.38 223.363C179.38 223.363 179.223 224.391 178.967 225.985C178.205 230.838 176.582 240.896 175.941 242.965C175.505 244.456 174.912 245.897 174.174 247.265C174.174 247.265 175.068 252.423 174.174 253.799C173.28 255.174 174.037 256.723 174.037 256.723C174.037 256.723 174.898 261.023 172.311 262.741C169.724 264.459 172.311 265.322 172.311 265.322C172.311 265.322 170.415 269.453 169.728 271.167C169.041 272.881 169.728 275.297 169.728 275.297L168.35 289.224C168.35 289.224 167.141 295.069 167.315 299.026C167.489 302.982 165.763 312.094 165.763 312.094C165.763 312.094 152.493 312.094 150.449 310.545C148.404 308.996 153.863 293.888 153.863 293.888C153.863 293.888 155.416 267.404 155.068 266.718C154.72 266.033 155.068 260.87 156.277 259.841C157.485 258.813 156.277 256.744 156.277 256.744C156.277 256.744 155.933 252.613 156.277 251.585C156.62 250.557 156.223 247.112 156.223 247.112C156.223 247.112 155.068 238.686 154.898 233.87C154.729 229.054 153.863 218.225 153.863 218.225C153.863 218.225 154.766 211.525 154.902 208.337C154.952 207.164 155.478 205.697 156.144 204.318C156.89 202.76 157.748 201.258 158.71 199.824C158.71 199.824 199.542 187.78 201.255 188.978C201.71 189.296 202.373 191.456 203.027 194.583C204.848 203.318 206.627 219.716 203.838 225.787Z" fill="#444053"/>
<path d="M178.681 120.683C185.248 120.683 190.572 115.371 190.572 108.817C190.572 102.263 185.248 96.9506 178.681 96.9506C172.114 96.9506 166.79 102.263 166.79 108.817C166.79 115.371 172.114 120.683 178.681 120.683Z" fill="#A1616A"/>
<path opacity="0.1" d="M203.027 194.591C201.657 195.293 200.738 195.776 200.738 195.776C200.738 195.776 181.437 204.892 175.949 204.376C171.703 203.963 160.862 204.198 156.14 204.314C156.886 202.756 157.743 201.254 158.706 199.82C158.706 199.82 199.542 187.78 201.255 188.978C201.71 189.304 202.373 191.456 203.027 194.591Z" fill="black"/>
<path d="M170.407 127.767C170.407 127.767 159.393 129.502 156.794 131.203C154.194 132.905 149.045 136.193 149.045 143.243C149.045 150.293 147.841 157.517 147.15 159.578C146.459 161.639 158.006 178.322 158.006 178.322L153.867 203.603C153.867 203.603 170.423 203.087 175.937 203.603C181.45 204.12 200.742 195.004 200.742 195.004C200.742 195.004 212.116 188.986 214.529 188.809C216.942 188.631 209.703 175.567 209.703 175.567C209.703 175.567 198.498 154.42 200.394 150.979C202.29 147.539 203.68 142.553 203.68 142.553L201.611 125.016C201.611 125.016 198.511 123.983 195.924 125.875C193.337 127.767 184.55 126.734 184.55 126.734L170.407 127.767Z" fill="#FF6484"/>
<path opacity="0.1" d="M151.711 158.376L147.39 159.578L146.194 175.761C146.194 175.761 147.746 180.061 146.194 181.436C144.642 182.811 144.298 212.219 144.298 212.219C144.298 212.219 149.298 215.829 155.155 213.078C155.155 213.078 154.294 209.811 156.881 197.945C159.468 186.078 159.463 180.061 159.463 180.061C159.463 180.061 159.463 165.27 160.672 162.862C161.881 160.454 160.672 154.436 160.672 154.436C160.672 154.436 158.259 151.169 158.429 149.967C158.598 148.765 151.711 158.376 151.711 158.376Z" fill="black"/>
<path opacity="0.1" d="M153.776 214.028C151.239 214.881 148.477 214.781 146.008 213.747C146.322 212.866 146.691 212.005 147.113 211.17L151.798 208.333C151.798 208.333 152.771 210.765 153.776 214.028Z" fill="black"/>
<path d="M151.45 158.376L147.142 159.578L145.937 175.761C145.937 175.761 147.489 180.061 145.937 181.436C144.385 182.811 144.042 212.219 144.042 212.219C144.042 212.219 149.046 215.825 154.898 213.062C154.898 213.062 154.037 209.795 156.62 197.928C159.203 186.062 159.207 180.044 159.207 180.044C159.207 180.044 159.207 165.253 160.411 162.845C161.616 160.437 160.411 154.42 160.411 154.42C160.411 154.42 157.998 151.153 158.172 149.951C158.346 148.749 151.45 158.376 151.45 158.376Z" fill="#FF6484"/>
<path opacity="0.1" d="M195.568 160.954C195.568 160.954 193.329 180.213 186.777 183.827C186.777 183.827 201.425 179.701 195.568 160.954Z" fill="black"/>
<path opacity="0.1" d="M162.655 162.676C162.655 162.676 170.751 166.629 168.863 169.38C166.976 172.13 162.655 162.676 162.655 162.676Z" fill="black"/>
<path opacity="0.1" d="M162.655 170.586C162.655 170.586 167.824 175.918 166.794 177.81C165.763 179.701 162.655 170.586 162.655 170.586Z" fill="black"/>
<path opacity="0.1" d="M204.355 126.391C204.355 126.391 206.383 129.828 206.578 132.066C206.772 134.305 204.355 126.391 204.355 126.391Z" fill="black"/>
<path opacity="0.1" d="M204.355 121.749C204.355 121.749 205.373 120.886 207.973 121.749C210.572 122.612 204.355 121.749 204.355 121.749Z" fill="black"/>
<path opacity="0.1" d="M194.405 222.26C190.135 222.864 185.781 222.308 181.802 220.649L179.629 226.2L179.389 223.631C179.745 221.475 180.436 219.166 181.802 218.584C181.802 218.584 186.586 222.388 194.405 222.26Z" fill="black"/>
<path opacity="0.1" d="M159.054 229.484C159.054 229.484 169.654 231.677 172.626 231.289L159.054 229.484Z" fill="black"/>
<path opacity="0.1" d="M160.155 232.255C160.155 232.255 164.679 232.061 166.938 232.966L160.155 232.255Z" fill="black"/>
<path opacity="0.1" d="M160.672 234.126C162.736 234.564 164.831 234.84 166.939 234.952L160.672 234.126Z" fill="black"/>
<path opacity="0.1" d="M160.411 257.793C160.606 257.665 169.459 255.6 170.56 257.082L160.411 257.793Z" fill="black"/>
<path opacity="0.1" d="M160.411 260.502C160.411 260.502 168.102 259.598 168.296 260.502C168.491 261.407 160.411 260.502 160.411 260.502Z" fill="black"/>
<path opacity="0.1" d="M160.411 262.952C160.411 262.952 168.619 261.258 169.587 261.671C170.556 262.084 160.411 262.952 160.411 262.952Z" fill="black"/>
<path opacity="0.1" d="M160.8 320.735L151.496 327.12C151.496 327.12 151.55 326.372 151.641 325.274C153.71 320.193 156.405 317.513 156.405 317.513C158.503 316.968 159.828 317.472 160.651 318.459C160.684 319.83 160.8 320.735 160.8 320.735Z" fill="black"/>
<path d="M161.707 326.472C160.392 329.465 159.73 332.703 159.766 335.971C159.818 338.651 159.137 341.294 157.795 343.616C157.601 343.944 157.383 344.256 157.141 344.55C157.141 344.55 150.676 344.496 148.412 342.625C148.158 342.424 147.95 342.171 147.804 341.882C146.508 339.304 150.325 329.437 150.325 329.437C152.328 321.829 156.396 317.765 156.396 317.765C163.644 315.894 161.707 326.472 161.707 326.472Z" fill="#444053"/>
<path opacity="0.1" d="M157.795 343.596C157.601 343.923 157.383 344.235 157.141 344.529C157.141 344.529 150.676 344.476 148.412 342.605C149.526 338.929 153.077 327.806 154.741 329.697C156.305 331.473 157.394 340.019 157.795 343.596Z" fill="black"/>
<path d="M156.91 330.387L156.458 347.049H158.627C158.627 347.049 158.979 332.432 159.948 330.387C160.916 328.343 156.91 330.387 156.91 330.387Z" fill="#444053"/>
<path opacity="0.1" d="M183.871 331.758C183.871 331.758 174.372 322.796 175.341 322.085C175.601 321.895 175.858 321.131 176.094 320.115C177.919 319.797 181.061 320.557 183.66 327.835C183.722 329.9 183.871 331.758 183.871 331.758Z" fill="black"/>
<path d="M185.291 341.754C185.218 341.785 185.141 341.807 185.063 341.82C183.946 342.014 179.827 341.902 177.522 341.82C177.099 341.806 176.699 341.629 176.405 341.326C176.111 341.023 175.946 340.618 175.945 340.197C175.945 339.577 175.945 338.821 175.895 338.016C175.788 335.472 175.481 332.444 174.567 331.762C172.948 330.523 171.669 326.319 174.567 320.995C174.567 320.995 180.121 316.761 184.128 329.487C184.128 329.487 184.517 333.117 186.259 334.406C188.002 335.695 186.069 341.386 185.291 341.754Z" fill="#444053"/>
<path opacity="0.1" d="M185.055 341.82C183.937 342.014 179.819 341.902 177.514 341.82C177.091 341.806 176.691 341.629 176.397 341.326C176.102 341.023 175.938 340.618 175.937 340.196C175.937 339.577 175.937 338.821 175.887 338.016C176.587 334.934 177.592 331.762 178.888 331.04C178.896 331.035 182.816 330.594 185.055 341.82Z" fill="black"/>
<path d="M175.27 330.664L176.313 344.529H177.638V329.482L175.27 330.664Z" fill="#444053"/>
<path opacity="0.1" d="M178.507 89.9084C174.752 90.1873 171.118 91.3524 167.903 93.3076C167.075 93.8074 166.247 94.4146 165.904 95.3108C165.606 96.0873 165.73 96.963 165.742 97.789C165.854 104.901 157.907 110.283 158.156 117.391C158.255 120.212 159.675 122.839 159.935 125.652C160.37 130.344 157.588 134.66 154.923 138.547C157.669 138.714 160.374 137.819 162.477 136.048C165.289 145.403 165.653 155.322 163.532 164.857H167.344C167.721 164.83 168.099 164.876 168.458 164.993C168.792 165.152 169.092 165.375 169.339 165.65C172.903 169.19 175.291 174.423 173.929 179.255L182.042 176.219C183.983 175.492 185.953 174.753 187.642 173.555C189.331 172.358 190.746 170.619 191.102 168.578C191.321 167.339 191.251 165.861 192.273 165.142C192.777 164.875 193.314 164.676 193.871 164.551C196.098 163.766 197.083 161.197 197.538 158.884C198.093 156.047 198.267 153.148 198.056 150.265C197.695 145.432 196.263 140.525 197.443 135.808C198.109 133.161 199.591 130.695 199.711 127.961C199.906 123.455 196.375 119.572 195.849 115.091C195.481 111.968 196.611 108.809 196.243 105.686C196.038 104.075 195.447 102.536 194.52 101.201C193.593 99.8654 192.356 98.7731 190.916 98.0162C189.918 97.504 188.846 97.1612 187.861 96.5954C185.614 95.2943 184.177 92.9524 182.137 91.3416C180.096 89.7308 176.698 89.1237 175.163 91.2177L178.507 89.9084Z" fill="black"/>
<path d="M178.507 89.3921C174.752 89.671 171.118 90.8361 167.903 92.7914C167.075 93.2911 166.247 93.8983 165.904 94.7946C165.606 95.5711 165.73 96.4467 165.742 97.2728C165.854 104.385 157.907 109.767 158.156 116.879C158.255 119.696 159.675 122.323 159.935 125.14C160.37 129.832 157.588 134.148 154.923 138.039C157.668 138.2 160.371 137.306 162.477 135.54C165.289 144.893 165.652 154.808 163.532 164.341H167.344C167.721 164.315 168.099 164.362 168.458 164.481C168.793 164.637 169.093 164.859 169.339 165.134C172.903 168.677 175.291 173.906 173.929 178.739L182.042 175.703C183.983 174.976 185.953 174.237 187.642 173.039C189.331 171.841 190.746 170.102 191.102 168.062C191.321 166.823 191.251 165.344 192.273 164.626C192.777 164.358 193.314 164.16 193.871 164.035C196.098 163.25 197.083 160.681 197.538 158.368C198.097 155.528 198.276 152.627 198.068 149.74C197.708 144.908 196.276 140.001 197.455 135.284C198.122 132.636 199.604 130.171 199.724 127.436C199.918 122.93 196.388 119.048 195.862 114.566C195.494 111.444 196.623 108.288 196.255 105.162C196.05 103.55 195.459 102.012 194.531 100.677C193.604 99.3416 192.368 98.2491 190.928 97.4917C189.931 96.9795 188.859 96.6367 187.874 96.075C185.626 94.7698 184.19 92.4279 182.149 90.8171C180.109 89.2063 176.711 88.5991 175.175 90.6932L178.507 89.3921Z" fill="#925978"/>
<g opacity="0.1">
<path opacity="0.1" d="M165.734 95.5546C165.717 95.7137 165.709 95.8737 165.709 96.0337C165.722 95.8767 165.73 95.7156 165.734 95.5546Z" fill="black"/>
<path opacity="0.1" d="M195.816 112.088C195.965 109.899 196.454 107.702 196.272 105.521C196.135 107.71 195.647 109.907 195.816 112.088Z" fill="black"/>
<path opacity="0.1" d="M159.935 122.972C159.695 120.411 158.499 118.015 158.218 115.458C158.161 115.927 158.141 116.399 158.156 116.871C158.255 119.659 159.641 122.265 159.923 125.041C159.991 124.353 159.995 123.66 159.935 122.972Z" fill="black"/>
<path opacity="0.1" d="M197.472 133.144C197.084 134.825 196.945 136.553 197.058 138.274C197.099 137.271 197.238 136.273 197.472 135.296C198.138 132.649 199.62 130.183 199.74 127.449C199.76 126.963 199.738 126.477 199.674 125.995C199.351 128.452 198.064 130.741 197.472 133.144Z" fill="black"/>
<path opacity="0.1" d="M162.477 133.367C160.75 134.811 158.614 135.678 156.367 135.846C155.896 136.581 155.407 137.3 154.923 138.01C157.668 138.171 160.371 137.277 162.477 135.511C163.989 140.532 164.799 145.737 164.886 150.979C165.008 145.019 164.196 139.077 162.477 133.367Z" fill="black"/>
<path opacity="0.1" d="M197.551 156.204C197.095 158.517 196.11 161.086 193.883 161.867C193.326 161.991 192.788 162.191 192.286 162.461C191.264 163.18 191.334 164.667 191.115 165.898C190.759 167.938 189.347 169.673 187.654 170.854C185.961 172.035 183.995 172.795 182.054 173.522L174.314 176.414C174.274 177.189 174.149 177.958 173.942 178.706L182.054 175.67C183.995 174.943 185.966 174.204 187.654 173.006C189.343 171.808 190.759 170.069 191.115 168.029C191.334 166.79 191.264 165.311 192.286 164.593C192.79 164.325 193.327 164.127 193.883 164.002C196.11 163.217 197.095 160.648 197.551 158.335C198.022 155.928 198.218 153.476 198.134 151.025C198.08 152.764 197.885 154.496 197.551 156.204Z" fill="black"/>
<path opacity="0.1" d="M169.352 162.957C169.105 162.681 168.805 162.457 168.47 162.3C168.111 162.183 167.733 162.135 167.357 162.16H163.975C163.842 162.878 163.702 163.597 163.561 164.312H167.373C167.75 164.286 168.128 164.333 168.486 164.452C168.822 164.608 169.122 164.83 169.368 165.105C171.976 167.699 173.95 171.193 174.289 174.778C174.707 170.491 172.481 166.079 169.352 162.957Z" fill="black"/>
</g>
<path opacity="0.1" d="M150.44 177.033C150.44 177.033 153.52 175.744 154.207 177.033C154.894 178.322 150.44 177.033 150.44 177.033Z" fill="black"/>
<path opacity="0.1" d="M151.529 179.243C151.529 179.243 154.608 177.954 155.3 179.243C155.991 180.531 151.529 179.243 151.529 179.243Z" fill="black"/>
<path opacity="0.1" d="M342.383 12.4818C342.383 12.4818 326.634 11.5359 328.492 22.5473C328.492 22.5473 328.124 24.4927 329.891 25.3766C329.891 25.3766 329.92 24.5505 331.505 24.8355C332.07 24.9303 332.644 24.958 333.215 24.9181C333.986 24.8648 334.718 24.5617 335.301 24.0549C335.301 24.0549 339.726 22.2334 341.447 15.0136C341.447 15.0136 342.722 13.4359 342.689 13.0311L340.032 14.1669C340.032 14.1669 340.938 16.0792 340.222 17.6694C340.222 17.6694 340.139 14.233 339.626 14.3156C339.523 14.3156 338.248 14.9765 338.248 14.9765C338.248 14.9765 339.808 18.3096 338.629 20.7341C338.629 20.7341 339.076 16.6286 337.76 15.2201L335.88 16.3312C335.88 16.3312 337.706 19.7717 336.468 22.5803C336.468 22.5803 336.787 18.2724 335.487 16.5955L333.79 17.9131C333.79 17.9131 335.508 21.2876 334.473 23.6171C334.473 23.6171 334.337 18.5987 333.434 18.2229C333.434 18.2229 331.952 19.5281 331.729 20.065C331.729 20.065 332.9 22.5432 332.172 23.8236C332.172 23.8236 331.725 20.4863 331.344 20.4698C331.344 20.4698 329.866 22.6836 329.713 24.187C329.785 22.7842 330.223 21.4244 330.984 20.2426C330.132 20.4036 329.346 20.8116 328.724 21.4156C328.724 21.4156 328.952 19.8502 331.348 19.7098C331.348 19.7098 332.569 18.0329 332.896 17.9296C332.896 17.9296 330.512 17.7314 329.068 18.3716C329.068 18.3716 330.338 16.8929 333.335 17.5455L334.991 16.1825C334.991 16.1825 331.853 15.7695 330.52 16.2279C330.52 16.2279 332.052 14.9228 335.442 15.8727L337.263 14.7865C337.263 14.7865 334.589 14.2082 332.996 14.4189C332.996 14.4189 334.676 13.5143 337.797 14.4932L339.101 13.9108C339.101 13.9108 337.139 13.5267 336.567 13.4648C335.996 13.4028 335.963 13.2459 335.963 13.2459C337.204 13.0397 338.479 13.1827 339.643 13.6589C339.643 13.6589 342.428 12.6552 342.383 12.4818Z" fill="#FCBC0B"/>
<path opacity="0.1" d="M319.937 3.55206C319.937 3.55206 306.692 12.1059 314.726 19.875C314.726 19.875 315.583 21.6593 317.532 21.3289C317.532 21.3289 317.069 20.6515 318.513 19.937C319.025 19.6797 319.505 19.3621 319.941 18.9911C320.531 18.492 320.942 17.815 321.112 17.0623C321.112 17.0623 323.596 12.9733 320.699 6.14176C320.699 6.14176 320.79 4.11791 320.508 3.82053L319.043 6.29871C319.043 6.29871 320.91 7.30238 321.278 9.00406C321.278 9.00406 319.171 6.29045 318.795 6.65805C318.72 6.7324 318.074 8.00866 318.074 8.00866C318.074 8.00866 321.315 9.76817 321.8 12.4157C321.8 12.4157 319.73 8.84298 317.822 8.49191L316.961 10.4745C316.961 10.4745 320.479 12.1679 321.15 15.1623C321.15 15.1623 318.844 11.5029 316.804 10.9205L316.224 12.9857C316.224 12.9857 319.618 14.7039 320.16 17.1986C320.16 17.1986 317.073 13.2418 316.121 13.4813C316.121 13.4813 315.707 15.406 315.839 15.9595C315.839 15.9595 318.248 17.2481 318.43 18.7268C318.43 18.7268 316.088 16.3023 315.786 16.5047C315.786 16.5047 315.91 19.1605 316.684 20.4739C315.91 19.3012 315.456 17.9473 315.367 16.546C314.777 17.1796 314.385 17.9723 314.242 18.8259C314.242 18.8259 313.497 17.4299 315.347 15.9017C315.347 15.9017 315.347 13.8365 315.533 13.5515C315.533 13.5515 313.497 14.7906 312.71 16.1701C312.71 16.1701 312.859 14.2289 315.67 12.9981L316.208 10.9123C316.208 10.9123 313.426 12.424 312.636 13.5928C312.636 13.5928 313.095 11.6351 316.386 10.396L317.213 8.44234C317.213 8.44234 314.73 9.56165 313.555 10.6727C313.555 10.6727 314.382 8.94624 317.47 7.89301L318.174 6.65392C318.174 6.65392 316.365 7.50476 315.868 7.79388C315.372 8.08301 315.252 7.97562 315.252 7.97562C316.129 7.07526 317.239 6.43603 318.459 6.12937C318.459 6.12937 320.078 3.66771 319.937 3.55206Z" fill="#FCBC0B"/>
<path opacity="0.1" d="M299.78 13.5185C299.78 13.5185 291.862 27.1485 302.553 30.4238C302.553 30.4238 304.13 31.6257 305.715 30.4238C305.715 30.4238 304.999 30.0356 305.96 28.7428C306.293 28.2814 306.571 27.7823 306.787 27.2559C307.086 26.5436 307.146 25.7538 306.957 25.0049C306.957 25.0049 307.309 20.2385 301.618 15.4597C301.618 15.4597 300.79 13.6176 300.376 13.4813L300.198 16.3725C300.198 16.3725 302.317 16.4221 303.422 17.7727C303.422 17.7727 300.31 16.3065 300.153 16.798C300.119 16.8971 300.124 18.3262 300.124 18.3262C300.124 18.3262 303.845 18.4377 305.5 20.5772C305.5 20.5772 302.023 18.3344 300.173 18.8796L300.306 21.0356C300.306 21.0356 304.209 20.953 306.166 23.3197C306.166 23.3197 302.441 21.1017 300.372 21.5065L300.786 23.6088C300.786 23.6088 304.594 23.6088 306.208 25.5831C306.208 25.5831 301.655 23.4519 300.914 24.0838C300.914 24.0838 301.415 25.992 301.796 26.434C301.796 26.434 304.527 26.4918 305.364 27.7267C305.364 27.7267 302.172 26.6239 301.994 26.9461C301.994 26.9461 303.315 29.255 304.602 30.0728C303.381 29.3818 302.361 28.3854 301.643 27.1815C301.404 28.0133 301.416 28.8964 301.676 29.7217C301.676 29.7217 300.376 28.8171 301.328 26.6157C301.328 26.6157 300.376 24.7736 300.43 24.439C300.43 24.439 299.188 26.4753 299.105 28.0489C299.105 28.0489 298.352 26.2522 300.297 23.8856L299.83 21.7791C299.83 21.7791 298.037 24.3853 297.864 25.7855C297.864 25.7855 297.384 23.8319 299.755 21.2422L299.598 19.1316C299.598 19.1316 297.884 21.2587 297.355 22.7745C297.355 22.7745 297.297 20.8663 299.577 18.5244L299.639 17.0995C299.639 17.0995 298.398 18.6731 298.104 19.1646C297.81 19.6561 297.636 19.5859 297.636 19.5859C298.009 18.3855 298.708 17.3118 299.656 16.4841C299.656 16.4841 299.954 13.5557 299.78 13.5185Z" fill="#FCBC0B"/>
<path d="M369.339 128.952V135.026C369.307 135.374 369.473 136.07 370.391 136.07C371.309 136.07 371.603 135.374 371.635 135.026V128.952H390.188V135.026C390.156 135.374 390.321 136.07 391.239 136.07C392.158 136.07 392.451 135.374 392.483 135.026V128.952H399.368C400.42 141.448 402.93 166.599 402.555 168.149C401.981 170.522 399.464 172.42 398.316 172.42H394.395C384.099 172.452 366.738 172.496 364.366 172.42C361.402 172.325 360.139 169.933 359.68 169.478C359.221 169.022 359.138 167.2 359.202 166.441L362.549 128.952H369.339Z" fill="url(#paint1_linear)" fill-opacity="0.5"/>
<path fill-rule="evenodd" clip-rule="evenodd" d="M361.21 126.674H369.339C369.339 122.783 371.596 115 380.624 115C390.264 115 392.546 122.846 392.483 126.769H400.611C401.224 126.769 401.44 127.338 401.472 127.623L404.915 167.674C404.915 172.382 400.197 174.318 397.838 174.698C395.137 174.698 391.466 174.734 387.505 174.774C378.567 174.863 368.153 174.967 364.079 174.698C358.341 174.318 356.779 169.32 356.811 166.915C357.14 163.268 357.562 158.635 357.998 153.837L357.998 153.834L357.998 153.834L357.998 153.833C359.124 141.447 360.35 127.966 360.35 127.528C360.35 126.921 360.923 126.705 361.21 126.674ZM390.188 126.769H371.635C371.571 123.542 373.432 117.088 381.389 117.088C388.428 117.088 390.188 123.542 390.188 126.769ZM369.339 135.026V128.952H362.549L359.202 166.441C359.138 167.2 359.221 169.022 359.68 169.478C359.755 169.552 359.852 169.679 359.974 169.838L359.974 169.838C360.598 170.655 361.887 172.341 364.366 172.42C366.738 172.496 384.099 172.452 394.395 172.42H398.316C399.464 172.42 401.981 170.522 402.555 168.149C402.82 167.053 401.644 154.16 400.559 142.283L400.559 142.282L400.559 142.277C400.11 137.357 399.677 132.612 399.368 128.952H392.483V135.026C392.451 135.374 392.158 136.07 391.24 136.07C390.321 136.07 390.156 135.374 390.188 135.026V128.952H371.635V135.026C371.603 135.374 371.309 136.07 370.391 136.07C369.473 136.07 369.307 135.374 369.339 135.026Z" fill="url(#paint2_linear)"/>
<path d="M369.339 126.674V126.924H369.589V126.674H369.339ZM361.21 126.674V126.424H361.197L361.183 126.425L361.21 126.674ZM392.483 126.769L392.233 126.765L392.229 127.019H392.483V126.769ZM401.472 127.623L401.721 127.601L401.721 127.595L401.472 127.623ZM404.915 167.674H405.165V167.664L405.164 167.653L404.915 167.674ZM397.838 174.698V174.948H397.858L397.878 174.945L397.838 174.698ZM387.505 174.774L387.503 174.524L387.505 174.774ZM364.079 174.698L364.096 174.448H364.096L364.079 174.698ZM356.811 166.915L356.562 166.893L356.561 166.902L356.561 166.912L356.811 166.915ZM357.998 153.837L358.247 153.86L358.247 153.86L357.998 153.837ZM357.998 153.834L357.749 153.812L357.749 153.812L357.998 153.834ZM357.998 153.834L357.749 153.81L357.749 153.811L357.998 153.834ZM357.998 153.833L358.247 153.857L358.247 153.856L357.998 153.833ZM371.635 126.769L371.385 126.774L371.389 127.019H371.635V126.769ZM390.188 126.769V127.019H390.438V126.769H390.188ZM369.339 128.952H369.589V128.702H369.339V128.952ZM369.339 135.026L369.588 135.049L369.589 135.037V135.026H369.339ZM362.549 128.952V128.702H362.321L362.3 128.929L362.549 128.952ZM359.202 166.441L358.953 166.418L358.953 166.42L359.202 166.441ZM359.68 169.478L359.856 169.3H359.856L359.68 169.478ZM359.974 169.838L360.174 169.688L360.173 169.687L359.974 169.838ZM359.974 169.838L359.774 169.988L359.776 169.99L359.974 169.838ZM364.366 172.42L364.358 172.67L364.366 172.42ZM394.395 172.42V172.17H394.395L394.395 172.42ZM402.555 168.149L402.798 168.208L402.555 168.149ZM400.559 142.283L400.808 142.261L400.808 142.26L400.559 142.283ZM400.559 142.282L400.31 142.305L400.31 142.306L400.559 142.282ZM400.559 142.277L400.808 142.254L400.808 142.254L400.559 142.277ZM399.368 128.952L399.618 128.931L399.598 128.702H399.368V128.952ZM392.483 128.952V128.702H392.233V128.952H392.483ZM392.483 135.026L392.732 135.049L392.733 135.037V135.026H392.483ZM390.188 135.026L390.437 135.049L390.438 135.037V135.026H390.188ZM390.188 128.952H390.438V128.702H390.188V128.952ZM371.635 128.952V128.702H371.385V128.952H371.635ZM371.635 135.026L371.884 135.049L371.885 135.037V135.026H371.635ZM369.339 126.424H361.21V126.924H369.339V126.424ZM380.624 114.75C376.025 114.75 373.129 116.738 371.391 119.235C369.663 121.718 369.089 124.69 369.089 126.674H369.589C369.589 124.767 370.144 121.901 371.801 119.52C373.449 117.153 376.195 115.25 380.624 115.25V114.75ZM392.733 126.773C392.765 124.77 392.201 121.772 390.395 119.267C388.58 116.749 385.523 114.75 380.624 114.75V115.25C385.365 115.25 388.269 117.174 389.989 119.559C391.719 121.958 392.264 124.844 392.233 126.765L392.733 126.773ZM400.611 126.519H392.483V127.019H400.611V126.519ZM401.721 127.595C401.701 127.418 401.626 127.159 401.459 126.938C401.285 126.708 401.008 126.519 400.611 126.519V127.019C400.827 127.019 400.965 127.114 401.06 127.24C401.162 127.375 401.212 127.543 401.224 127.651L401.721 127.595ZM405.164 167.653L401.721 127.601L401.223 127.644L404.666 167.696L405.164 167.653ZM397.878 174.945C399.089 174.75 400.899 174.158 402.412 173.008C403.932 171.853 405.165 170.125 405.165 167.674H404.665C404.665 169.931 403.539 171.525 402.11 172.61C400.675 173.7 398.946 174.266 397.798 174.451L397.878 174.945ZM387.508 175.024C391.469 174.984 395.138 174.948 397.838 174.948V174.448C395.135 174.448 391.463 174.484 387.503 174.524L387.508 175.024ZM364.063 174.947C368.148 175.217 378.576 175.113 387.508 175.024L387.503 174.524C378.557 174.613 368.157 174.717 364.096 174.448L364.063 174.947ZM356.561 166.912C356.545 168.159 356.939 170.062 358.076 171.708C359.22 173.364 361.112 174.752 364.063 174.947L364.096 174.448C361.308 174.264 359.551 172.963 358.487 171.424C357.416 169.874 357.046 168.075 357.061 166.919L356.561 166.912ZM357.749 153.815C357.313 158.612 356.891 163.245 356.562 166.893L357.06 166.938C357.389 163.29 357.811 158.657 358.247 153.86L357.749 153.815ZM357.749 153.812L357.749 153.815L358.247 153.86L358.247 153.857L357.749 153.812ZM357.749 153.811L357.749 153.812L358.247 153.857L358.247 153.856L357.749 153.811ZM357.749 153.81L357.749 153.81L358.247 153.857L358.247 153.857L357.749 153.81ZM360.1 127.528C360.1 127.528 360.1 127.528 360.1 127.529C360.1 127.53 360.1 127.532 360.099 127.533C360.099 127.537 360.099 127.541 360.099 127.547C360.098 127.558 360.098 127.573 360.097 127.592C360.094 127.629 360.091 127.679 360.086 127.741C360.077 127.866 360.063 128.038 360.046 128.255C360.01 128.69 359.958 129.3 359.891 130.059C359.759 131.578 359.571 133.691 359.347 136.177C358.9 141.151 358.312 147.617 357.749 153.811L358.247 153.856C358.81 147.663 359.398 141.196 359.845 136.222C360.069 133.736 360.257 131.622 360.39 130.103C360.456 129.343 360.508 128.732 360.544 128.296C360.579 127.87 360.6 127.596 360.6 127.528H360.1ZM361.183 126.425C361.005 126.445 360.745 126.519 360.523 126.685C360.292 126.857 360.1 127.132 360.1 127.528H360.6C360.6 127.317 360.694 127.181 360.822 127.085C360.958 126.984 361.129 126.934 361.238 126.922L361.183 126.425ZM371.635 127.019H390.188V126.519H371.635V127.019ZM381.389 116.838C377.332 116.838 374.801 118.489 373.301 120.572C371.811 122.642 371.352 125.119 371.385 126.774L371.885 126.764C371.853 125.192 372.293 122.828 373.707 120.864C375.111 118.914 377.49 117.338 381.389 117.338V116.838ZM390.438 126.769C390.438 125.12 389.99 122.649 388.637 120.581C387.276 118.501 385.001 116.838 381.389 116.838V117.338C384.817 117.338 386.941 118.902 388.219 120.855C389.505 122.822 389.938 125.191 389.938 126.769H390.438ZM369.089 128.952V135.026H369.589V128.952H369.089ZM362.549 129.202H369.339V128.702H362.549V129.202ZM359.451 166.463L362.798 128.974L362.3 128.929L358.953 166.418L359.451 166.463ZM359.856 169.3C359.789 169.233 359.712 169.086 359.643 168.848C359.577 168.62 359.528 168.34 359.494 168.044C359.425 167.452 359.421 166.823 359.451 166.462L358.953 166.42C358.92 166.818 358.925 167.48 358.997 168.102C359.033 168.413 359.086 168.722 359.163 168.987C359.237 169.243 359.342 169.494 359.504 169.655L359.856 169.3ZM360.173 169.687C360.056 169.534 359.947 169.39 359.856 169.3L359.504 169.655C359.564 169.715 359.648 169.824 359.776 169.99L360.173 169.687ZM360.174 169.688L360.174 169.688L359.774 169.988L359.774 169.988L360.174 169.688ZM364.374 172.17C362.021 172.095 360.796 170.501 360.173 169.687L359.776 169.99C360.401 170.808 361.753 172.586 364.358 172.67L364.374 172.17ZM394.395 172.17C384.094 172.202 366.74 172.246 364.374 172.17L364.358 172.67C366.736 172.746 384.104 172.702 394.396 172.67L394.395 172.17ZM398.316 172.17H394.395V172.67H398.316V172.17ZM402.312 168.09C402.041 169.214 401.303 170.241 400.482 170.99C400.074 171.363 399.651 171.661 399.265 171.865C398.874 172.072 398.544 172.17 398.316 172.17V172.67C398.663 172.67 399.078 172.53 399.499 172.307C399.926 172.081 400.384 171.757 400.82 171.359C401.688 170.566 402.496 169.457 402.798 168.208L402.312 168.09ZM400.31 142.306C400.852 148.245 401.418 154.436 401.814 159.279C402.012 161.701 402.168 163.784 402.258 165.33C402.303 166.103 402.331 166.739 402.34 167.215C402.345 167.453 402.344 167.648 402.339 167.799C402.333 167.956 402.322 168.049 402.312 168.09L402.798 168.208C402.821 168.112 402.833 167.976 402.838 167.817C402.844 167.653 402.845 167.448 402.84 167.205C402.831 166.72 402.802 166.076 402.757 165.301C402.667 163.749 402.511 161.661 402.312 159.239C401.916 154.392 401.35 148.199 400.808 142.261L400.31 142.306ZM400.31 142.306L400.31 142.307L400.808 142.26L400.808 142.259L400.31 142.306ZM400.31 142.299L400.31 142.305L400.808 142.26L400.808 142.254L400.31 142.299ZM399.119 128.973C399.427 132.634 399.861 137.38 400.31 142.3L400.808 142.254C400.359 137.334 399.926 132.589 399.618 128.931L399.119 128.973ZM392.483 129.202H399.368V128.702H392.483V129.202ZM392.733 135.026V128.952H392.233V135.026H392.733ZM391.24 136.32C391.77 136.32 392.141 136.115 392.381 135.844C392.613 135.581 392.712 135.268 392.732 135.049L392.234 135.003C392.222 135.132 392.158 135.341 392.006 135.513C391.862 135.676 391.627 135.82 391.24 135.82V136.32ZM389.939 135.003C389.919 135.221 389.959 135.545 390.152 135.822C390.357 136.113 390.708 136.32 391.24 136.32V135.82C390.853 135.82 390.662 135.678 390.562 135.535C390.452 135.377 390.425 135.179 390.437 135.049L389.939 135.003ZM389.938 128.952V135.026H390.438V128.952H389.938ZM371.635 129.202H390.188V128.702H371.635V129.202ZM371.885 135.026V128.952H371.385V135.026H371.885ZM370.391 136.32C370.922 136.32 371.293 136.115 371.533 135.844C371.765 135.581 371.863 135.268 371.884 135.049L371.386 135.003C371.374 135.132 371.31 135.341 371.158 135.513C371.013 135.676 370.779 135.82 370.391 135.82V136.32ZM369.09 135.003C369.07 135.221 369.11 135.545 369.304 135.822C369.508 136.113 369.86 136.32 370.391 136.32V135.82C370.005 135.82 369.814 135.678 369.714 135.535C369.603 135.377 369.576 135.179 369.588 135.049L369.09 135.003Z" fill="#F5F5F5" fill-opacity="0.5"/>
<path d="M388.813 168.197C389.205 168.195 389.549 168.052 389.786 167.784C390.562 166.451 389.834 165.953 389.284 165.638C388.606 165.263 387.206 164.479 387.024 164.343C386.843 164.207 386.573 163.532 386.461 163.212L385.404 159.778C385.068 158.817 384.214 155.944 384.167 155.674C384.13 155.459 384.276 155.278 384.353 155.215C384.871 154.838 385.965 154.013 386.197 153.725C386.429 153.438 386.799 152.737 386.955 152.422C388.05 150.204 386.465 147.992 385.535 147.163L383.85 145.511C383.191 144.917 381.785 143.6 381.438 143.078C380.963 142.563 379.833 140.097 379.651 139.71C379.505 139.4 379.028 138.074 378.808 137.449C378.705 137.229 378.396 136.785 377.98 136.772C377.465 136.757 377.182 137.507 377.103 137.717L377.101 137.724C377.041 137.883 377.05 138.907 377.063 139.399C376.731 140.179 376.186 139.786 376.051 139.668C375.943 139.574 375.677 138.794 375.558 138.416C375.316 137.711 375.062 137.565 374.95 137.501C373.457 136.848 373.588 139.631 373.627 139.774C373.658 139.889 373.599 139.987 373.565 140.022C373.514 139.992 373.323 140.004 372.964 140.284C372.606 140.563 372.31 141.269 372.206 141.587C372.254 141.841 372.272 142.5 372.275 142.798C371.96 142.78 371.685 143.066 371.587 143.212C370.823 144.133 371.94 146.082 372.593 146.941C372.41 147.256 372.269 147.685 372.222 147.86C372.165 147.957 372.491 148.984 372.661 149.485C372.614 149.472 372.481 149.471 372.323 149.575C372.166 149.678 372.081 149.921 372.059 150.03C371.91 150.397 372.221 151.011 372.395 151.273C372.786 151.497 372.747 152.067 372.679 152.324C372.673 152.685 372.932 153.359 373.542 153.991C374.029 154.496 375.109 154.983 375.588 155.163C375.366 155.489 375.002 156.147 374.847 156.436C374.251 157.517 375.124 158.831 375.635 159.352L378.775 161.233C378.941 161.368 380.099 163.648 380.302 164.209C380.464 164.658 381.262 165.662 381.641 166.107C382.007 166.411 383.008 167.117 384.084 167.507C385.429 167.995 388.324 168.199 388.813 168.197Z" fill="#333333"/>
<path d="M383.369 154.247L383.827 154.509C384.654 154.418 385.257 153.591 385.56 153.28C386.234 152.332 386.362 152.042 386.548 151.583C386.734 151.123 386.585 150.189 386.49 149.933C386.383 149.346 386.031 148.902 385.492 148.149C384.953 147.395 383.676 146.3 383.057 145.824C382.438 145.348 381.167 143.893 380.71 143.348C380.253 142.803 379.34 140.664 379.24 140.485C379.14 140.307 378.275 138.154 378.211 137.915C378.159 137.724 378.073 137.661 378.037 137.654C377.983 137.677 377.858 137.794 377.79 138.078C377.705 138.434 377.727 139.376 377.774 139.645C377.821 139.915 378.326 141.497 379.002 142.854C379.543 143.94 381.508 146.014 382.422 146.915C382.938 147.359 384.156 148.555 384.902 149.791C385.836 151.336 385.387 151.968 384.664 153.211C384.435 153.605 383.812 153.881 383.528 153.974C383.307 154.074 383.33 154.198 383.369 154.247Z" fill="#FCBC0B"/>
<path d="M377.578 141.594C377.636 141.885 378.295 143.136 378.618 143.725L378.312 143.55C378.256 143.437 378.105 143.165 377.952 142.98C377.799 142.795 377.321 142.012 377.101 141.644C376.972 141.422 376.718 140.915 376.733 140.665C376.748 140.415 376.976 140.481 377.088 140.545C377.227 140.773 377.519 141.302 377.578 141.594Z" fill="#FCBC0B"/>
<path d="M384.739 151.193C384.798 151.259 384.65 151.694 384.569 151.904C384.537 151.912 384.468 151.91 384.447 151.834C384.426 151.757 384.533 151.452 384.589 151.309C384.614 151.243 384.679 151.126 384.739 151.193Z" fill="#FCBC0B"/>
<path d="M375.667 153.067L375.977 154.214C375.755 154.222 375.153 154.146 374.518 153.782C373.883 153.418 373.543 152.658 373.453 152.324C373.479 152.231 373.563 152.064 373.685 152.134C373.808 152.204 375.057 152.785 375.667 153.067Z" fill="#FCBC0B"/>
<path d="M379.424 159.908C379.668 159.433 380.767 158.697 381.286 158.388C381.33 158.359 381.423 158.264 381.444 158.115C381.472 157.928 381.389 157.72 381.108 157.154C380.826 156.589 380.377 156.17 379.614 155.732C378.85 155.295 378.011 155.057 377.382 155.019C376.92 154.917 376.515 155.156 376.37 155.288L375.365 157.016C375.092 157.765 375.841 158.555 376.249 158.856L378.509 160.151C379.071 160.473 379.353 160.123 379.424 159.908Z" fill="#FCBC0B"/>
<path d="M385.946 163.887C386.177 164.666 386.623 164.962 386.794 165.019L389.329 166.471C389.947 167.998 387.468 167.386 386.001 167.151C382.872 166.651 381.621 165.207 381.267 164.439C381.142 164.165 380.872 163.566 380.795 163.36C380.719 163.155 380.154 162.036 379.881 161.503C380.325 159.13 383.85 159.089 384.086 159.103C384.275 159.115 384.395 159.32 384.431 159.422C384.839 160.586 385.715 163.108 385.946 163.887Z" fill="#FCBC0B"/>
<path d="M382.823 158.056L383.786 157.8C383.902 157.769 383.928 157.625 383.927 157.557L383.282 155.167C383.205 155.042 382.982 154.801 382.701 154.834C382.351 154.876 382.048 155.187 381.864 155.365C381.716 155.506 381.731 155.733 381.757 155.829C382.025 156.44 382.572 157.702 382.614 157.855C382.655 158.008 382.77 158.053 382.823 158.056Z" fill="#FCBC0B"/>
<path d="M376.873 150.363C377.114 150.566 379.896 152.284 381.257 153.118C380.986 153.415 380.379 153.531 380.109 153.551C379.223 153.044 377.353 151.947 376.955 151.623C376.558 151.298 376.43 150.985 376.416 150.869C376.468 150.616 376.633 150.161 376.873 150.363Z" fill="#FCBC0B"/>
<path d="M381.94 152.014L381.675 152.468L377.518 149.885C377.423 149.722 377.216 149.355 377.15 149.188C377.084 149.021 377.199 148.893 377.265 148.85C377.353 148.793 377.551 148.667 377.642 148.622C377.756 148.566 377.782 148.662 377.795 148.709C377.805 148.748 377.886 148.856 377.925 148.905C377.956 149.02 378.691 149.573 379.054 149.835C379.774 150.301 381.305 151.286 381.671 151.496C382.038 151.706 382.003 151.929 381.94 152.014Z" fill="#FCBC0B"/>
<path d="M378.614 147.441C380.303 148.57 381.402 150.022 381.741 150.606C381.709 150.717 381.59 150.655 381.535 150.61L379.098 148.85C378.955 148.768 378.636 148.537 378.501 148.265C378.366 147.994 378.52 147.603 378.614 147.441Z" fill="#FCBC0B"/>
<path d="M377.938 147.134L377.691 147.559C377.178 147.157 376.071 146.283 375.747 146C375.342 145.647 374.579 144.927 373.923 144.026C373.267 143.124 373.086 142.455 372.94 141.725C372.824 141.141 373.402 140.885 373.705 140.83C373.862 141.121 374.251 141.894 374.559 142.652C374.944 143.6 376.971 146.136 377.473 146.464C377.874 146.726 377.95 147.02 377.938 147.134Z" fill="#FCBC0B"/>
<path d="M376.492 148.569L376.879 148.184C377.033 148.03 376.944 147.932 376.88 147.902C376.207 147.355 374.758 146.161 374.339 145.76C373.921 145.358 373.139 144.277 372.8 143.786C372.287 143.129 372.148 143.857 372.077 143.978C372.007 144.1 372.379 145 372.443 145.239C372.508 145.478 373.052 146.153 373.396 146.472C373.74 146.79 375.536 148.183 375.976 148.476C376.329 148.71 376.467 148.635 376.492 148.569Z" fill="#FCBC0B"/>
<path d="M379.551 154.161C379.707 154.509 379.439 154.609 379.286 154.615C379.092 154.599 378.556 154.512 377.962 154.301C377.368 154.09 376.778 153.677 376.557 153.496C376.243 152.637 376.732 152.613 377.016 152.708L379.551 154.161Z" fill="#FCBC0B"/>
<path d="M375.853 151.557C376.441 152.282 375.887 152.223 375.536 152.103C374.816 151.884 373.621 151.194 373.114 150.876C372.191 149.831 372.988 149.996 373.502 150.21L375.853 151.557Z" fill="#FCBC0B"/>
<path d="M373.317 147.517L374.233 148.042C374.928 148.481 376.272 149.494 376.299 149.671C376.326 149.848 375.741 150.28 375.478 150.453L373.37 149.245C373.294 149.121 373.168 148.725 373.016 148.315C372.864 147.904 373.171 147.582 373.317 147.517Z" fill="#FCBC0B"/>
<path d="M380.04 155.209C380.068 155.386 380.457 155.38 380.648 155.355C380.817 155.344 381.511 154.781 381.837 154.501C384 152.952 383.947 151.224 383.97 150.833C383.994 150.443 383.765 149.786 383.583 149.399C383.401 149.012 382.705 148.249 382.343 147.961C381.981 147.673 380.452 146.312 380.073 146.054C379.693 145.796 378.809 145.007 378.434 144.671C378.06 144.335 377.677 143.873 377.385 143.464C377.094 143.054 376.408 141.853 376.153 141.383C375.897 140.913 374.774 138.573 374.753 138.399C374.736 138.26 374.627 138.219 374.575 138.216C374.439 138.286 374.198 138.639 374.324 139.487C374.481 140.547 374.831 141.555 375.169 142.234C375.38 142.921 376.677 144.472 377.085 145.029C377.494 145.587 380.2 147.865 381.085 148.654C381.969 149.444 382.791 150.481 382.713 151.244C382.635 152.008 382.586 152.303 382.14 153.139C381.735 153.836 380.962 154.161 380.495 154.217C380.332 154.474 380.013 155.032 380.04 155.209Z" fill="#FCBC0B"/>
<path d="M355.599 128.51C355.679 130.169 356.666 132.111 358.819 132.127C359.376 132.131 359.559 132.409 359.559 132.409C359.777 133.074 359.275 133.174 358.996 133.142C355.099 133.112 354.626 130.314 354.482 128.87C354.461 127.642 354.402 124.909 354.336 123.803C354.271 122.698 353.515 121.955 352.405 121.578C351.619 121.311 350.269 121.684 349.71 121.926C347.476 122.829 342.263 124.871 339.286 125.806C335.564 126.975 328.5 128.394 327.757 128.388C327.163 128.384 326.12 128.13 325.904 128.005C326.554 127.918 335.295 125.775 336.225 125.506C337.156 125.237 344.291 122.747 344.787 122.532C345.625 122.17 348.606 120.72 349.629 120.451C350.448 120.237 351.489 120.005 352.415 120.196C354.362 120.488 355.645 122.524 355.633 124.09L355.599 128.51Z" fill="url(#paint3_linear)"/>
<path d="M339.284 125.99C335.563 127.159 329.056 128.424 327.756 128.572C325.898 128.784 322.52 128.808 322 128.804C322.18 129.573 323.725 131.304 325.136 131.315C326.899 131.329 337.87 128.834 339.265 128.477C340.381 128.191 343.235 127.156 344.477 126.583C345.905 125.949 348.392 124.437 350.064 124.139C351.551 123.874 352.819 124.037 353.405 124.165C353.689 123.522 353.609 122.877 353.233 122.413C352.556 121.579 350.733 121.696 349.709 122.11C347.475 123.014 342.261 125.055 339.284 125.99Z" fill="url(#paint4_linear)"/>
<path d="M339.17 128.777C337.775 129.134 326.805 131.537 325.041 131.523C325.1 131.923 326.126 132.852 327.164 133.081C328.461 133.367 328.925 133.371 331.433 133.114C333.877 132.863 338.778 131.42 340.081 130.97C341.383 130.519 344.612 129.095 346.226 128.463L350.139 126.534C351.07 126.142 351.908 125.719 352.929 125.727L353.95 125.734C353.861 125.292 353.772 124.72 353.218 124.439C352.663 124.159 350.752 124.14 349.691 124.412C348.575 124.698 345.811 126.132 344.383 126.766C343.141 127.34 340.286 128.491 339.17 128.777Z" fill="url(#paint5_linear)"/>
<path d="M331.614 133.668C330.87 133.849 329.585 133.97 328.828 133.922C328.917 134.386 329.026 134.642 329.838 135.312C330.649 135.981 331.5 136.43 332.055 136.618C332.795 136.87 334.449 136.618 335.492 136.184C336.535 135.75 341.327 133.835 343.592 132.931L346.293 131.662L348.903 130.301C349.649 129.815 351.327 128.791 352.072 128.575C352.816 128.36 353.373 128.309 353.559 128.31C353.684 128.096 353.936 127.503 353.941 126.84C353.881 126.594 353.929 125.992 353.113 125.912C352.093 125.812 351.161 126.358 350.229 126.811L346.689 128.534C345.106 129.258 341.529 130.852 339.891 131.429C338.253 132.006 333.691 133.162 331.614 133.668Z" fill="url(#paint6_linear)"/>
<path d="M343.682 133.3C341.417 134.204 336.534 135.934 335.491 136.369C334.56 136.756 334.813 137.124 334.556 137.19C334.428 137.75 334.471 138.311 335.007 138.852C335.56 139.408 336.024 139.412 337.233 139.053C338.315 138.732 345.615 135.341 346.268 134.886C346.791 134.521 348.599 133.461 349.438 132.976C351.119 131.699 351.81 131.171 352.332 130.88C352.984 130.516 353.823 130.154 353.918 129.879C354.012 129.603 354.297 128.777 353.464 128.494C353.279 128.492 352.814 128.544 352.07 128.759C351.326 128.975 350.205 129.912 349.459 130.397L346.662 131.941L343.682 133.3Z" fill="url(#paint7_linear)"/>
<path d="M345.987 135.252C345.334 135.707 337.975 139.151 336.86 139.326C336.856 139.787 337.132 140.065 337.593 140.529C338.239 140.995 338.607 141.458 339.999 141.377C341.113 141.312 343.596 140.361 344.559 139.846C345.678 139.118 348.01 137.589 348.384 137.297C348.757 137.005 350.345 135.685 351 135.014L354.086 132.091L354.647 131.542C354.81 131.267 354.891 130.66 354.284 130.434C353.678 130.209 352.137 131.37 351.489 131.886L349.344 133.252L349.291 133.282C348.424 133.783 346.499 134.895 345.987 135.252Z" fill="url(#paint8_linear)"/>
<path d="M348.382 137.573C348.008 137.865 345.676 139.394 344.557 140.122C343.896 140.475 342.654 140.932 341.578 141.297C341.543 141.801 342.162 142.536 344.168 142.33C346.174 142.124 347.297 141.74 347.701 141.528C348.167 141.317 349.304 140.693 350.127 139.889C350.95 139.085 354.337 135.531 355.928 133.855C356.115 133.703 356.287 133.121 355.844 132.749C355.401 132.377 355.077 131.975 354.923 131.821C354.238 132.368 352.755 133.775 352.305 134.287C351.743 134.928 349.035 137.116 348.382 137.573Z" fill="url(#paint9_linear)"/>
<path d="M357.509 133.499C358.064 133.687 357.595 134.359 357.5 134.604C356.685 136.04 355.016 138.987 354.865 139.281C354.714 139.574 353.926 140.624 353.551 141.113C353.207 141.601 352.314 142.687 351.494 143.123C350.469 143.668 349.536 144.213 347.221 143.551C349.029 141.784 352.889 137.976 353.863 136.878C354.837 135.781 356.203 134.287 356.765 133.677C356.765 133.677 356.953 133.31 357.509 133.499Z" fill="url(#paint10_linear)"/>
<path d="M354.859 140.017C353.354 142.658 351.205 144.472 350.552 144.866C351.077 145.023 352.912 144.882 353.245 144.702C354.084 144.248 354.366 143.79 354.927 143.15C355.377 142.637 356.556 140.552 357.09 139.574C357.562 138.565 358.678 135.884 358.984 134.707C359.065 133.897 358.591 133.599 358.345 133.413C357.872 134.453 356.365 137.377 354.859 140.017Z" fill="url(#paint11_linear)"/>
<path d="M406.689 128.001C406.406 129.638 405.187 131.445 403.048 131.201C402.495 131.137 402.279 131.391 402.279 131.391C401.981 132.024 402.467 132.185 402.747 132.186C406.619 132.629 407.433 129.91 407.753 128.494C407.926 127.277 408.321 124.572 408.522 123.483C408.723 122.393 409.564 121.748 410.713 121.508C411.526 121.339 412.82 121.873 413.344 122.18C415.451 123.348 420.374 126.007 423.213 127.296C426.763 128.907 433.6 131.172 434.337 131.257C434.927 131.324 435.994 131.199 436.224 131.102C435.589 130.936 427.178 127.749 426.288 127.369C425.397 126.989 418.622 123.652 418.156 123.38C417.369 122.919 414.589 121.117 413.607 120.727C412.821 120.414 411.816 120.058 410.873 120.136C408.905 120.189 407.38 122.054 407.2 123.61L406.689 128.001Z" fill="url(#paint12_linear)"/>
<path d="M423.192 127.479C426.742 129.09 433.043 131.135 434.316 131.44C436.134 131.875 439.484 132.309 440 132.368C439.727 133.109 437.98 134.64 436.579 134.48C434.827 134.279 424.245 130.473 422.905 129.949C421.833 129.53 419.127 128.157 417.965 127.437C416.626 126.635 414.344 124.832 412.721 124.334C411.277 123.891 410 123.899 409.402 123.954C409.199 123.282 409.358 122.651 409.788 122.237C410.562 121.491 412.358 121.828 413.323 122.363C415.43 123.531 420.352 126.19 423.192 127.479Z" fill="url(#paint13_linear)"/>
<path d="M422.963 130.258C424.303 130.782 434.895 134.497 436.647 134.698C436.539 135.087 435.406 135.885 434.348 135.986C433.026 136.113 432.565 136.06 430.107 135.501C427.712 134.956 423.026 132.93 421.788 132.324C420.551 131.719 417.522 129.914 415.998 129.091L412.352 126.702C411.476 126.2 410.696 125.678 409.682 125.562L408.668 125.446C408.811 125.018 408.969 124.461 409.554 124.25C410.139 124.039 412.038 124.252 413.057 124.65C414.13 125.07 416.697 126.828 418.036 127.63C419.198 128.351 421.89 129.839 422.963 130.258Z" fill="url(#paint14_linear)"/>
<path d="M429.859 136.029C430.575 136.299 431.836 136.575 432.593 136.62C432.448 137.069 432.308 137.31 431.42 137.876C430.532 138.442 429.633 138.784 429.058 138.904C428.292 139.064 426.682 138.614 425.7 138.056C424.719 137.499 420.199 135.017 418.062 133.845L415.537 132.258L413.115 130.591C412.434 130.018 410.894 128.798 410.182 128.494C409.47 128.19 408.923 128.071 408.739 128.05C408.641 127.823 408.464 127.203 408.54 126.544C408.63 126.307 408.656 125.705 409.476 125.724C410.501 125.749 411.359 126.403 412.228 126.966L415.53 129.105C417.012 130.016 420.365 132.032 421.92 132.803C423.474 133.574 427.86 135.275 429.859 136.029Z" fill="url(#paint15_linear)"/>
<path d="M417.927 134.2C420.064 135.372 424.697 137.682 425.679 138.239C426.555 138.737 426.259 139.071 426.505 139.168C426.563 139.74 426.452 140.291 425.853 140.762C425.236 141.248 424.775 141.195 423.619 140.692C422.585 140.242 415.757 135.992 415.165 135.461C414.691 135.036 413.027 133.764 412.254 133.181C410.743 131.71 410.122 131.101 409.64 130.749C409.037 130.31 408.25 129.849 408.19 129.564C408.129 129.279 407.948 128.424 408.81 128.244C408.994 128.265 409.449 128.373 410.161 128.677C410.873 128.981 411.87 130.046 412.551 130.619L415.136 132.491L417.927 134.2Z" fill="url(#paint16_linear)"/>
<path d="M415.399 135.858C415.991 136.39 422.871 140.699 423.956 141.009C423.903 141.466 423.594 141.709 423.08 142.114C422.382 142.498 421.96 142.913 420.588 142.663C419.49 142.464 417.143 141.219 416.251 140.591C415.229 139.733 413.103 137.932 412.768 137.597C412.434 137.262 411.02 135.759 410.453 135.014L407.75 131.738L407.261 131.126C407.133 130.833 407.127 130.221 407.757 130.07C408.387 129.92 409.774 131.259 410.353 131.851L412.314 133.466L412.363 133.502C413.161 134.105 414.935 135.442 415.399 135.858Z" fill="url(#paint17_linear)"/>
<path d="M412.736 137.871C413.071 138.206 415.198 140.007 416.219 140.866C416.831 141.296 418.008 141.9 419.031 142.393C419.003 142.897 418.298 143.551 416.333 143.104C414.367 142.656 413.3 142.139 412.925 141.88C412.489 141.613 411.437 140.856 410.719 139.958C410.001 139.06 407.077 135.123 405.704 133.266C405.538 133.092 405.439 132.494 405.924 132.179C406.409 131.863 406.781 131.504 406.952 131.369C407.565 131.995 408.864 133.572 409.247 134.135C409.726 134.838 412.144 137.339 412.736 137.871Z" fill="url(#paint18_linear)"/>
<path d="M404.18 132.721C403.605 132.84 403.988 133.564 404.052 133.819C404.685 135.343 405.978 138.47 406.092 138.78C406.205 139.09 406.858 140.228 407.17 140.758C407.451 141.284 408.204 142.471 408.964 143.003C409.915 143.668 410.773 144.322 413.152 143.945C411.575 141.972 408.213 137.725 407.382 136.517C406.551 135.31 405.378 133.661 404.896 132.988C404.896 132.988 404.754 132.601 404.18 132.721Z" fill="url(#paint19_linear)"/>
<path d="M406.007 139.512C407.176 142.316 409.085 144.376 409.684 144.846C409.144 144.939 407.34 144.576 407.032 144.358C406.255 143.805 406.032 143.316 405.553 142.612C405.17 142.049 404.256 139.837 403.847 138.802C403.503 137.742 402.725 134.946 402.566 133.741C402.586 132.928 403.093 132.689 403.36 132.534C403.701 133.624 404.837 136.708 406.007 139.512Z" fill="url(#paint20_linear)"/>
</g>
<defs>
<linearGradient id="paint0_linear" x1="253.481" y1="244.423" x2="253.481" y2="39.4609" gradientUnits="userSpaceOnUse">
<stop stop-color="#808080" stop-opacity="0.25"/>
<stop offset="0.54" stop-color="#808080" stop-opacity="0.12"/>
<stop offset="1" stop-color="#808080" stop-opacity="0.1"/>
</linearGradient>
<linearGradient id="paint1_linear" x1="380.888" y1="128.952" x2="380.888" y2="172.462" gradientUnits="userSpaceOnUse">
<stop stop-color="#FCBC0B"/>
<stop offset="1" stop-color="#FDCD49" stop-opacity="0.93"/>
</linearGradient>
<linearGradient id="paint2_linear" x1="380.863" y1="115" x2="380.863" y2="174.871" gradientUnits="userSpaceOnUse">
<stop stop-color="#FCBC0B"/>
<stop offset="1" stop-color="#FDCD49" stop-opacity="0.93"/>
</linearGradient>
<linearGradient id="paint3_linear" x1="340.806" y1="120.125" x2="352.944" y2="134.604" gradientUnits="userSpaceOnUse">
<stop stop-color="#7225D0"/>
<stop offset="1" stop-color="#6813D0" stop-opacity="0.8"/>
</linearGradient>
<linearGradient id="paint4_linear" x1="340.806" y1="120.125" x2="352.944" y2="134.604" gradientUnits="userSpaceOnUse">
<stop stop-color="#7225D0"/>
<stop offset="1" stop-color="#6813D0" stop-opacity="0.8"/>
</linearGradient>
<linearGradient id="paint5_linear" x1="340.806" y1="120.125" x2="352.944" y2="134.604" gradientUnits="userSpaceOnUse">
<stop stop-color="#7225D0"/>
<stop offset="1" stop-color="#6813D0" stop-opacity="0.8"/>
</linearGradient>
<linearGradient id="paint6_linear" x1="340.806" y1="120.125" x2="352.944" y2="134.604" gradientUnits="userSpaceOnUse">
<stop stop-color="#7225D0"/>
<stop offset="1" stop-color="#6813D0" stop-opacity="0.8"/>
</linearGradient>
<linearGradient id="paint7_linear" x1="340.806" y1="120.125" x2="352.944" y2="134.604" gradientUnits="userSpaceOnUse">
<stop stop-color="#7225D0"/>
<stop offset="1" stop-color="#6813D0" stop-opacity="0.8"/>
</linearGradient>
<linearGradient id="paint8_linear" x1="340.806" y1="120.125" x2="352.944" y2="134.604" gradientUnits="userSpaceOnUse">
<stop stop-color="#7225D0"/>
<stop offset="1" stop-color="#6813D0" stop-opacity="0.8"/>
</linearGradient>
<linearGradient id="paint9_linear" x1="340.806" y1="120.125" x2="352.944" y2="134.604" gradientUnits="userSpaceOnUse">
<stop stop-color="#7225D0"/>
<stop offset="1" stop-color="#6813D0" stop-opacity="0.8"/>
</linearGradient>
<linearGradient id="paint10_linear" x1="340.806" y1="120.125" x2="352.944" y2="134.604" gradientUnits="userSpaceOnUse">
<stop stop-color="#7225D0"/>
<stop offset="1" stop-color="#6813D0" stop-opacity="0.8"/>
</linearGradient>
<linearGradient id="paint11_linear" x1="340.806" y1="120.125" x2="352.944" y2="134.604" gradientUnits="userSpaceOnUse">
<stop stop-color="#7225D0"/>
<stop offset="1" stop-color="#6813D0" stop-opacity="0.8"/>
</linearGradient>
<linearGradient id="paint12_linear" x1="421.093" y1="120.125" x2="433.177" y2="134.661" gradientUnits="userSpaceOnUse">
<stop stop-color="#7225D0"/>
<stop offset="1" stop-color="#6813D0" stop-opacity="0.8"/>
</linearGradient>
<linearGradient id="paint13_linear" x1="421.093" y1="120.125" x2="433.177" y2="134.661" gradientUnits="userSpaceOnUse">
<stop stop-color="#7225D0"/>
<stop offset="1" stop-color="#6813D0" stop-opacity="0.8"/>
</linearGradient>
<linearGradient id="paint14_linear" x1="421.093" y1="120.125" x2="433.177" y2="134.661" gradientUnits="userSpaceOnUse">
<stop stop-color="#7225D0"/>
<stop offset="1" stop-color="#6813D0" stop-opacity="0.8"/>
</linearGradient>
<linearGradient id="paint15_linear" x1="421.093" y1="120.125" x2="433.177" y2="134.661" gradientUnits="userSpaceOnUse">
<stop stop-color="#7225D0"/>
<stop offset="1" stop-color="#6813D0" stop-opacity="0.8"/>
</linearGradient>
<linearGradient id="paint16_linear" x1="421.093" y1="120.125" x2="433.177" y2="134.661" gradientUnits="userSpaceOnUse">
<stop stop-color="#7225D0"/>
<stop offset="1" stop-color="#6813D0" stop-opacity="0.8"/>
</linearGradient>
<linearGradient id="paint17_linear" x1="421.093" y1="120.125" x2="433.177" y2="134.661" gradientUnits="userSpaceOnUse">
<stop stop-color="#7225D0"/>
<stop offset="1" stop-color="#6813D0" stop-opacity="0.8"/>
</linearGradient>
<linearGradient id="paint18_linear" x1="421.093" y1="120.125" x2="433.177" y2="134.661" gradientUnits="userSpaceOnUse">
<stop stop-color="#7225D0"/>
<stop offset="1" stop-color="#6813D0" stop-opacity="0.8"/>
</linearGradient>
<linearGradient id="paint19_linear" x1="421.093" y1="120.125" x2="433.177" y2="134.661" gradientUnits="userSpaceOnUse">
<stop stop-color="#7225D0"/>
<stop offset="1" stop-color="#6813D0" stop-opacity="0.8"/>
</linearGradient>
<linearGradient id="paint20_linear" x1="421.093" y1="120.125" x2="433.177" y2="134.661" gradientUnits="userSpaceOnUse">
<stop stop-color="#7225D0"/>
<stop offset="1" stop-color="#6813D0" stop-opacity="0.8"/>
</linearGradient>
<clipPath id="clip0">
<rect width="462" height="354" fill="white"/>
</clipPath>
</defs>
</svg>
