<svg width="730" height="381" viewBox="0 0 730 381" fill="none" xmlns="http://www.w3.org/2000/svg">
<path d="M292.715 87.3039V125.11C292.518 127.276 293.542 131.608 299.212 131.608C304.881 131.608 306.693 127.276 306.889 125.11V87.3039H421.466V125.11C421.269 127.276 422.293 131.608 427.963 131.608C433.633 131.608 435.444 127.276 435.641 125.11V87.3039H478.164C484.661 165.082 500.161 321.622 497.845 331.272C494.301 346.04 478.755 357.854 471.668 357.854H447.453C383.865 358.051 276.651 358.327 262.004 357.854C243.695 357.264 235.899 342.377 233.064 339.542C230.229 336.707 229.717 325.365 230.111 320.639L250.782 87.3039H292.715Z" fill="url(#paint0_linear)" fill-opacity="0.5"/>
<path fill-rule="evenodd" clip-rule="evenodd" d="M242.514 73.1265H292.715C292.715 48.907 306.653 0.467773 362.406 0.467773C421.938 0.467773 436.034 49.3008 435.64 73.7173H485.842C489.621 73.7173 490.96 77.2616 491.157 79.0338L512.419 328.318C512.419 357.618 483.282 369.669 468.714 372.032C452.031 372.032 429.361 372.26 404.903 372.506C349.7 373.062 285.387 373.709 260.232 372.032C224.796 369.669 215.149 338.557 215.346 323.593C217.379 300.89 219.98 272.052 222.674 242.191L222.676 242.171C229.63 165.074 237.198 81.168 237.198 78.443C237.198 74.6624 240.742 73.3235 242.514 73.1265ZM421.466 73.7173H306.89C306.496 53.6327 317.993 13.4636 367.131 13.4636C410.599 13.4636 421.466 53.6327 421.466 73.7173ZM292.715 125.11V87.3039H250.782L230.111 320.639C229.717 325.365 230.229 336.707 233.064 339.542C233.528 340.006 234.125 340.793 234.879 341.787L234.879 341.787L234.879 341.787C238.733 346.868 246.692 357.36 262.004 357.854C276.651 358.327 383.865 358.051 447.453 357.854H471.668C478.755 357.854 494.302 346.04 497.845 331.272C499.482 324.449 492.215 244.208 485.519 170.286L485.519 170.284L485.519 170.282C482.744 139.645 480.068 110.094 478.164 87.3039H435.641V125.11C435.444 127.276 433.633 131.608 427.963 131.608C422.293 131.608 421.269 127.276 421.466 125.11V87.3039H306.889V125.11C306.693 127.276 304.881 131.608 299.212 131.608C293.542 131.608 292.518 127.276 292.715 125.11Z" fill="url(#paint1_linear)"/>
<path d="M292.715 73.1265V73.3765H292.965V73.1265H292.715ZM242.514 73.1265V72.8765H242.5L242.486 72.8781L242.514 73.1265ZM435.64 73.7173L435.39 73.7132L435.386 73.9673H435.64V73.7173ZM491.157 79.0338L491.406 79.0125L491.405 79.0062L491.157 79.0338ZM512.419 328.318H512.669V328.308L512.668 328.297L512.419 328.318ZM468.714 372.032V372.282H468.734L468.754 372.279L468.714 372.032ZM404.903 372.506L404.9 372.256L404.903 372.506ZM260.232 372.032L260.215 372.281L260.232 372.032ZM215.346 323.593L215.097 323.57L215.096 323.58L215.096 323.589L215.346 323.593ZM222.674 242.191L222.923 242.213L222.923 242.213L222.674 242.191ZM222.676 242.171L222.427 242.149L222.427 242.149L222.676 242.171ZM306.89 73.7173L306.64 73.7222L306.644 73.9673H306.89V73.7173ZM421.466 73.7173V73.9673H421.716V73.7173H421.466ZM292.715 87.3039H292.965V87.0539H292.715V87.3039ZM292.715 125.11L292.964 125.133L292.965 125.121V125.11H292.715ZM250.782 87.3039V87.0539H250.553L250.533 87.2818L250.782 87.3039ZM230.111 320.639L229.862 320.617L229.862 320.618L230.111 320.639ZM233.064 339.542L233.241 339.365H233.241L233.064 339.542ZM234.879 341.787L234.679 341.938L234.685 341.944L234.879 341.787ZM234.879 341.787L235.079 341.637L235.073 341.629L234.879 341.787ZM234.879 341.787L234.679 341.937L234.68 341.938L234.879 341.787ZM262.004 357.854L262.012 357.605L262.004 357.854ZM447.453 357.854V357.604H447.452L447.453 357.854ZM497.845 331.272L498.088 331.33L497.845 331.272ZM485.519 170.286L485.27 170.302L485.27 170.308L485.519 170.286ZM485.519 170.284L485.769 170.268L485.768 170.264L485.519 170.284ZM485.519 170.282L485.768 170.261L485.768 170.26L485.519 170.282ZM478.164 87.3039L478.413 87.2831L478.394 87.0539H478.164V87.3039ZM435.641 87.3039V87.0539H435.391V87.3039H435.641ZM435.641 125.11L435.89 125.133L435.891 125.121V125.11H435.641ZM421.466 125.11L421.715 125.133L421.716 125.121V125.11H421.466ZM421.466 87.3039H421.716V87.0539H421.466V87.3039ZM306.889 87.3039V87.0539H306.639V87.3039H306.889ZM306.889 125.11L307.138 125.133L307.139 125.121V125.11H306.889ZM292.715 72.8765H242.514V73.3765H292.715V72.8765ZM362.406 0.217773C334.443 0.217773 316.945 12.3711 306.447 27.5728C295.958 42.7612 292.465 60.9788 292.465 73.1265H292.965C292.965 61.0547 296.44 42.9429 306.859 27.8569C317.268 12.784 334.615 0.717773 362.406 0.717773V0.217773ZM435.89 73.7213C436.088 61.4724 432.653 43.1042 421.699 27.7909C410.735 12.4644 392.252 0.217773 362.406 0.217773V0.717773C392.092 0.717773 410.423 12.8876 421.292 28.0818C432.171 43.2891 435.587 61.5457 435.39 73.7132L435.89 73.7213ZM485.842 73.4673H435.64V73.9673H485.842V73.4673ZM491.405 79.0062C491.303 78.0855 490.907 76.7114 490.043 75.5608C489.172 74.4014 487.823 73.4673 485.842 73.4673V73.9673C487.64 73.9673 488.85 74.8053 489.643 75.8611C490.443 76.9257 490.814 78.2099 490.909 79.0614L491.405 79.0062ZM512.668 328.297L491.406 79.0125L490.908 79.055L512.17 328.34L512.668 328.297ZM468.754 372.279C476.07 371.092 487.037 367.475 496.181 360.475C505.332 353.469 512.669 343.064 512.669 328.318H512.169C512.169 342.872 504.937 353.142 495.878 360.078C486.812 367.018 475.926 370.609 468.674 371.785L468.754 372.279ZM404.905 372.756C429.364 372.51 452.033 372.282 468.714 372.282V371.782C452.03 371.782 429.358 372.01 404.9 372.256L404.905 372.756ZM260.215 372.281C285.382 373.959 349.71 373.312 404.905 372.756L404.9 372.256C349.691 372.812 285.391 373.459 260.248 371.782L260.215 372.281ZM215.096 323.589C214.997 331.117 217.371 342.688 224.22 352.679C231.077 362.681 242.415 371.094 260.215 372.281L260.248 371.782C242.613 370.606 231.409 362.282 224.633 352.397C217.849 342.5 215.498 331.033 215.596 323.596L215.096 323.589ZM222.425 242.169C219.731 272.029 217.13 300.867 215.097 323.57L215.595 323.615C217.628 300.912 220.229 272.074 222.923 242.213L222.425 242.169ZM222.427 242.149L222.425 242.169L222.923 242.213L222.925 242.194L222.427 242.149ZM236.948 78.443C236.948 78.7704 236.831 80.3643 236.61 83.0781C236.39 85.7832 236.067 89.585 235.658 94.3119C234.84 103.766 233.676 116.918 232.296 132.396C229.534 163.35 225.904 203.6 222.427 242.149L222.925 242.194C226.402 203.645 230.032 163.394 232.794 132.44C234.174 116.963 235.338 103.809 236.156 94.355C236.565 89.6278 236.888 85.8251 237.108 83.1187C237.328 80.4212 237.448 78.7969 237.448 78.443H236.948ZM242.486 72.8781C241.565 72.9804 240.192 73.3768 239.041 74.241C237.882 75.1119 236.948 76.4612 236.948 78.443H237.448C237.448 76.6442 238.286 75.4338 239.342 74.6408C240.406 73.8411 241.69 73.4696 242.541 73.375L242.486 72.8781ZM306.89 73.9673H421.466V73.4673H306.89V73.9673ZM367.131 13.2136C342.482 13.2136 327.247 23.2941 318.232 35.9134C309.227 48.5195 306.442 63.6391 306.64 73.7222L307.139 73.7124C306.943 63.7109 309.71 48.7037 318.639 36.2041C327.559 23.7178 342.642 13.7136 367.131 13.7136V13.2136ZM421.716 73.7173C421.716 63.6399 418.992 48.5258 410.809 35.9226C402.617 23.306 388.958 13.2136 367.131 13.2136V13.7136C388.772 13.7136 402.281 23.7059 410.39 36.1949C418.507 48.6974 421.216 63.7101 421.216 73.7173H421.716ZM292.465 87.3039V125.11H292.965V87.3039H292.465ZM250.782 87.5539H292.715V87.0539H250.782V87.5539ZM230.36 320.661L251.031 87.3259L250.533 87.2818L229.862 320.617L230.36 320.661ZM233.241 339.365C232.579 338.703 232.03 337.515 231.592 335.988C231.156 334.47 230.841 332.654 230.625 330.771C230.194 327.005 230.165 323.004 230.36 320.66L229.862 320.618C229.664 322.999 229.694 327.033 230.129 330.828C230.346 332.726 230.665 334.572 231.111 336.126C231.554 337.67 232.132 338.963 232.887 339.719L233.241 339.365ZM235.078 341.636C234.329 340.649 233.72 339.844 233.241 339.365L232.887 339.719C233.336 340.168 233.92 340.937 234.68 341.938L235.078 341.636ZM235.073 341.629L235.073 341.629L234.685 341.944L234.685 341.945L235.073 341.629ZM235.079 341.637L235.079 341.637L234.679 341.937L234.679 341.937L235.079 341.637ZM262.012 357.605C246.827 357.115 238.931 346.716 235.078 341.636L234.68 341.938C238.534 347.02 246.557 357.606 261.996 358.104L262.012 357.605ZM447.452 357.604C383.859 357.801 276.653 358.077 262.012 357.605L261.996 358.104C276.648 358.577 383.87 358.301 447.454 358.104L447.452 357.604ZM471.668 357.604H447.453V358.104H471.668V357.604ZM497.602 331.214C495.845 338.535 491.107 345.14 485.916 349.917C483.322 352.305 480.62 354.23 478.132 355.557C475.637 356.887 473.38 357.604 471.668 357.604V358.104C473.499 358.104 475.842 357.345 478.367 355.998C480.898 354.649 483.633 352.697 486.254 350.285C491.494 345.463 496.301 338.777 498.088 331.33L497.602 331.214ZM485.27 170.308C488.618 207.27 492.109 245.81 494.558 275.962C495.782 291.038 496.746 304.015 497.302 313.649C497.58 318.467 497.755 322.446 497.81 325.432C497.838 326.926 497.835 328.169 497.8 329.143C497.765 330.123 497.698 330.814 497.602 331.214L498.088 331.33C498.197 330.877 498.265 330.142 498.3 329.161C498.335 328.174 498.338 326.921 498.31 325.423C498.255 322.427 498.079 318.44 497.801 313.621C497.245 303.981 496.281 290.998 495.056 275.921C492.607 245.766 489.116 207.224 485.768 170.263L485.27 170.308ZM485.27 170.301L485.27 170.302L485.769 170.269L485.769 170.268L485.27 170.301ZM485.27 170.303L485.27 170.305L485.768 170.264L485.768 170.261L485.27 170.303ZM477.915 87.3247C479.819 110.115 482.495 139.668 485.27 170.305L485.768 170.26C482.993 139.622 480.317 110.072 478.413 87.2831L477.915 87.3247ZM435.641 87.5539H478.164V87.0539H435.641V87.5539ZM435.891 125.11V87.3039H435.391V125.11H435.891ZM427.963 131.858C430.87 131.858 432.809 130.744 434.042 129.336C435.268 127.937 435.787 126.26 435.89 125.133L435.392 125.087C435.297 126.126 434.812 127.698 433.666 129.007C432.528 130.306 430.726 131.358 427.963 131.358V131.858ZM421.217 125.087C421.115 126.214 421.328 127.901 422.309 129.314C423.301 130.742 425.055 131.858 427.963 131.858V131.358C425.201 131.358 423.608 130.308 422.72 129.029C421.821 127.734 421.621 126.172 421.715 125.133L421.217 125.087ZM421.216 87.3039V125.11H421.716V87.3039H421.216ZM306.889 87.5539H421.466V87.0539H306.889V87.5539ZM307.139 125.11V87.3039H306.639V125.11H307.139ZM299.212 131.858C302.119 131.858 304.057 130.744 305.291 129.336C306.517 127.937 307.036 126.26 307.138 125.133L306.641 125.087C306.546 126.126 306.061 127.698 304.915 129.007C303.776 130.306 301.975 131.358 299.212 131.358V131.858ZM292.466 125.087C292.364 126.214 292.577 127.901 293.558 129.314C294.55 130.742 296.304 131.858 299.212 131.858V131.358C296.45 131.358 294.857 130.308 293.969 129.029C293.07 127.734 292.87 126.172 292.964 125.133L292.466 125.087Z" fill="#F5F5F5" fill-opacity="0.5"/>
<path d="M412.981 331.569C415.401 331.558 417.523 330.671 418.989 329.002C423.78 320.702 419.283 317.602 415.888 315.641C411.702 313.308 403.051 308.43 401.931 307.582C400.811 306.734 399.144 302.535 398.451 300.541L391.928 279.168C389.847 273.187 384.578 255.305 384.289 253.628C384.057 252.287 384.957 251.163 385.436 250.769C388.634 248.424 395.388 243.286 396.823 241.499C398.257 239.711 400.542 235.346 401.505 233.387C408.266 219.583 398.476 205.814 392.736 200.655L382.328 190.369C378.257 186.676 369.577 178.478 367.43 175.226C364.5 172.025 357.518 156.674 356.394 154.265C355.495 152.337 352.55 144.08 351.189 140.192C350.556 138.82 348.647 136.058 346.076 135.981C342.897 135.887 341.151 140.554 340.663 141.858L340.647 141.901C340.275 142.894 340.335 149.267 340.411 152.329C338.363 157.183 334.998 154.737 334.164 154.004C333.496 153.417 331.856 148.563 331.119 146.209C329.626 141.825 328.054 140.917 327.362 140.518C318.142 136.451 318.956 153.774 319.195 154.666C319.387 155.381 319.018 155.99 318.81 156.205C318.496 156.023 317.314 156.095 315.102 157.836C312.89 159.577 311.059 163.97 310.42 165.948C310.715 167.527 310.827 171.633 310.846 173.488C308.901 173.371 307.2 175.156 306.593 176.063C301.878 181.792 308.774 193.923 312.811 199.273C311.678 201.235 310.809 203.902 310.516 204.99C310.168 205.594 312.178 211.987 313.227 215.107C312.939 215.025 312.119 215.021 311.144 215.665C310.169 216.31 309.649 217.82 309.511 218.495C308.593 220.782 310.51 224.606 311.583 226.232C313.997 227.626 313.758 231.177 313.337 232.778C313.3 235.02 314.902 239.215 318.666 243.15C321.678 246.297 328.346 249.326 331.303 250.447C329.933 252.473 327.683 256.573 326.73 258.37C323.047 265.098 328.437 273.274 331.592 276.521L350.99 288.226C352.012 289.068 359.162 303.257 360.416 306.748C361.419 309.541 366.345 315.79 368.683 318.565C370.944 320.457 377.126 324.849 383.772 327.278C392.078 330.314 409.955 331.583 412.981 331.569Z" fill="#333333"/>
<path d="M379.358 244.744L382.187 246.378C387.295 245.806 391.018 240.662 392.891 238.725C397.05 232.827 397.842 231.02 398.989 228.161C400.136 225.302 399.217 219.489 398.629 217.892C397.97 214.242 395.795 211.476 392.466 206.787C389.137 202.098 381.253 195.282 377.43 192.32C373.607 189.358 365.76 180.298 362.938 176.909C360.117 173.519 354.477 160.2 353.86 159.09C353.244 157.979 347.901 144.581 347.502 143.094C347.184 141.903 346.654 141.514 346.429 141.468C346.095 141.61 345.323 142.338 344.905 144.109C344.382 146.322 344.518 152.186 344.807 153.862C345.097 155.538 348.214 165.387 352.39 173.835C355.731 180.594 367.862 193.502 373.51 199.111C376.694 201.872 384.216 209.317 388.828 217.011C394.593 226.629 391.82 230.561 387.355 238.295C385.94 240.748 382.096 242.469 380.338 243.046C378.973 243.667 379.116 244.437 379.358 244.744Z" fill="#FCBC0B"/>
<path d="M343.592 165.988C343.951 167.805 348.024 175.59 350.016 179.256L348.13 178.166C347.782 177.462 346.849 175.767 345.903 174.617C344.958 173.467 342.004 168.593 340.646 166.299C339.851 164.917 338.284 161.766 338.377 160.21C338.47 158.654 339.877 159.064 340.568 159.463C341.426 160.881 343.232 164.171 343.592 165.988Z" fill="#FCBC0B"/>
<path d="M387.816 225.734C388.182 226.146 387.271 228.856 386.77 230.16C386.572 230.213 386.143 230.2 386.016 229.724C385.888 229.248 386.548 227.349 386.895 226.459C387.05 226.045 387.451 225.321 387.816 225.734Z" fill="#FCBC0B"/>
<path d="M331.793 237.399L333.706 244.541C332.337 244.589 328.619 244.118 324.696 241.853C320.773 239.587 318.676 234.855 318.118 232.772C318.283 232.197 318.801 231.154 319.555 231.59C320.31 232.026 328.028 235.644 331.793 237.399Z" fill="#FCBC0B"/>
<path d="M354.997 279.976C356.501 277.021 363.288 272.439 366.493 270.516C366.764 270.338 367.339 269.748 367.473 268.819C367.64 267.658 367.132 266.358 365.392 262.838C363.652 259.318 360.881 256.712 356.166 253.989C351.451 251.266 346.271 249.784 342.382 249.551C339.532 248.911 337.03 250.401 336.135 251.225L329.928 261.978C328.243 266.639 332.866 271.556 335.388 273.431L349.344 281.491C352.815 283.495 354.559 281.316 354.997 279.976Z" fill="#FCBC0B"/>
<path d="M395.271 304.742C396.698 309.59 399.456 311.434 400.507 311.79L416.162 320.83C419.982 330.331 404.673 326.52 395.613 325.062C376.286 321.949 368.564 312.963 366.379 308.18C365.603 306.474 363.934 302.744 363.464 301.466C362.995 300.189 359.503 293.226 357.816 289.904C360.556 275.137 382.33 274.883 383.788 274.971C384.955 275.041 385.691 276.321 385.913 276.952C388.438 284.196 393.845 299.894 395.271 304.742Z" fill="#FCBC0B"/>
<path d="M375.984 268.451L381.934 266.857C382.648 266.665 382.812 265.771 382.805 265.348L378.819 250.47C378.345 249.693 376.965 248.192 375.235 248.4C373.073 248.661 371.201 250.598 370.061 251.7C369.15 252.583 369.241 253.993 369.4 254.589C371.058 258.396 374.437 266.251 374.692 267.203C374.948 268.155 375.659 268.432 375.984 268.451Z" fill="#FCBC0B"/>
<path d="M339.243 220.573C340.728 221.833 357.91 232.526 366.315 237.715C364.642 239.567 360.891 240.285 359.225 240.412C353.755 237.254 342.203 230.432 339.748 228.411C337.293 226.389 336.506 224.442 336.419 223.721C336.741 222.147 337.757 219.313 339.243 220.573Z" fill="#FCBC0B"/>
<path d="M370.532 230.844L368.899 233.674L343.227 217.592C342.637 216.58 341.356 214.298 340.95 213.259C340.544 212.219 341.255 211.423 341.662 211.154C342.204 210.796 343.428 210.011 343.991 209.733C344.695 209.385 344.855 209.98 344.934 210.277C344.998 210.515 345.497 211.189 345.739 211.497C345.931 212.211 350.466 215.652 352.71 217.283C357.154 220.184 366.608 226.315 368.872 227.622C371.135 228.929 370.922 230.315 370.532 230.844Z" fill="#FCBC0B"/>
<path d="M349.994 202.383C360.422 209.411 367.211 218.446 369.302 222.085C369.104 222.776 368.373 222.387 368.032 222.106L352.98 211.151C352.1 210.642 350.131 209.203 349.296 207.514C348.46 205.824 349.413 203.389 349.994 202.383Z" fill="#FCBC0B"/>
<path d="M345.815 200.473L344.291 203.114C341.123 200.615 334.288 195.175 332.286 193.415C329.784 191.216 325.076 186.737 321.022 181.126C316.968 175.515 315.852 171.349 314.954 166.806C314.236 163.171 317.805 161.577 319.679 161.234C320.644 163.049 323.048 167.858 324.95 172.578C327.328 178.479 339.846 194.26 342.943 196.3C345.421 197.932 345.89 199.762 345.815 200.473Z" fill="#FCBC0B"/>
<path d="M336.888 209.404L339.276 207.01C340.231 206.052 339.679 205.44 339.284 205.254C335.13 201.849 326.177 194.415 323.595 191.918C321.012 189.42 316.18 182.689 314.087 179.636C310.917 175.542 310.06 180.077 309.624 180.832C309.189 181.586 311.487 187.189 311.885 188.677C312.284 190.165 315.642 194.368 317.767 196.35C319.892 198.332 330.983 207 333.703 208.822C335.879 210.28 336.733 209.817 336.888 209.404Z" fill="#FCBC0B"/>
<path d="M355.778 244.207C356.74 246.373 355.09 246.996 354.144 247.036C352.947 246.932 349.636 246.395 345.968 245.082C342.3 243.768 338.656 241.194 337.292 240.072C335.349 234.724 338.37 234.574 340.123 235.167L355.778 244.207Z" fill="#FCBC0B"/>
<path d="M332.943 228.002C336.575 232.514 333.149 232.146 330.982 231.398C326.537 230.038 319.158 225.743 316.024 223.766C310.326 217.256 315.247 218.287 318.42 219.616L332.943 228.002Z" fill="#FCBC0B"/>
<path d="M317.279 202.859L322.937 206.127C327.229 208.856 335.528 215.158 335.696 216.261C335.864 217.364 332.249 220.056 330.623 221.129L317.609 213.614C317.135 212.837 316.359 210.377 315.42 207.822C314.48 205.267 316.377 203.26 317.279 202.859Z" fill="#FCBC0B"/>
<path d="M358.801 250.732C358.969 251.835 361.371 251.797 362.552 251.64C363.595 251.575 367.883 248.068 369.896 246.323C383.256 236.683 382.926 225.928 383.072 223.497C383.218 221.066 381.804 216.98 380.68 214.57C379.557 212.161 375.256 207.413 373.022 205.62C370.787 203.827 361.344 195.355 359.001 193.75C356.658 192.146 351.196 187.231 348.882 185.141C346.568 183.05 344.204 180.175 342.405 177.628C340.607 175.08 336.372 167.604 334.791 164.679C333.21 161.754 326.279 147.187 326.149 146.106C326.044 145.24 325.37 144.985 325.046 144.966C324.207 145.403 322.722 147.598 323.498 152.875C324.468 159.472 326.629 165.75 328.717 169.974C330.021 174.249 338.028 183.903 340.552 187.373C343.076 190.843 359.788 205.021 365.25 209.935C370.711 214.85 375.788 221.303 375.308 226.056C374.827 230.809 374.522 232.645 371.771 237.848C369.266 242.186 364.494 244.209 361.611 244.557C360.604 246.156 358.633 249.629 358.801 250.732Z" fill="#FCBC0B"/>
<path d="M207.858 84.5561C208.351 94.8786 214.447 106.964 227.743 107.068C231.182 107.094 232.315 108.823 232.315 108.823C233.658 112.961 230.559 113.586 228.841 113.382C204.77 113.195 201.848 95.7837 200.963 86.7957C200.831 79.1512 200.466 62.1417 200.061 55.2594C199.656 48.3772 194.992 43.7549 188.132 41.4087C183.282 39.7496 174.944 42.0707 171.494 43.5726C157.695 49.1982 125.5 61.9041 107.114 67.7234C84.1316 74.9975 40.5037 83.8312 35.9188 83.7956C32.2509 83.7672 25.8057 82.1885 24.4743 81.4138C28.4906 80.8717 82.47 67.5322 88.2145 65.857C93.959 64.1818 138.023 48.6834 141.088 47.3496C146.264 45.0967 164.674 36.0673 170.992 34.3966C176.046 33.06 182.476 31.6194 188.199 32.8103C200.221 34.6233 208.147 47.2965 208.071 57.0413L207.858 84.5561Z" fill="url(#paint2_linear)"/>
<path d="M107.105 68.8697C84.1228 76.1438 43.9413 84.0215 35.9101 84.9419C24.4369 86.2568 3.57306 86.4109 0.363621 86.386C1.47281 91.1718 11.0182 101.947 19.7295 102.014C30.6187 102.099 98.3707 86.5731 106.985 84.3468C113.877 82.5658 131.503 76.1292 139.173 72.5581C147.992 68.6137 163.349 59.2023 173.68 57.3477C182.863 55.6992 190.688 56.7153 194.312 57.5078C196.062 53.5085 195.573 49.4919 193.25 46.6076C189.07 41.4158 177.81 42.1406 171.485 44.7189C157.686 50.3445 125.491 63.0504 107.105 68.8697Z" fill="url(#paint3_linear)"/>
<path d="M106.397 86.2146C97.783 88.4408 30.0354 103.393 19.1462 103.309C19.509 105.796 25.8453 111.578 32.2535 113.003C40.2638 114.785 43.1293 114.808 58.6168 113.208C73.711 111.649 103.977 102.668 112.023 99.864C120.069 97.0601 140.007 88.1951 149.972 84.2596L174.137 72.2561C179.888 69.8166 185.067 67.1815 191.371 67.2304L197.675 67.2793C197.123 64.5235 196.578 60.9649 193.152 59.2186C189.727 57.4723 177.927 57.3562 171.374 59.0496C164.482 60.8306 147.41 69.7557 138.591 73.7001C130.921 77.2713 113.289 84.4336 106.397 86.2146Z" fill="url(#paint4_linear)"/>
<path d="M59.7364 116.656C55.1425 117.784 47.2049 118.54 42.5296 118.242C43.0804 121.13 43.7558 122.723 48.7672 126.89C53.7786 131.056 59.03 133.848 62.4598 135.021C67.0328 136.586 77.247 135.021 83.6872 132.32C90.1274 129.618 119.718 117.695 133.708 112.071L150.391 104.174L166.505 95.7003C171.113 92.6788 181.479 86.3006 186.075 84.9603C190.671 83.6201 194.112 83.3028 195.258 83.3117C196.033 81.9801 197.59 78.2851 197.622 74.1579C197.252 72.6263 197.548 68.8833 192.508 68.3856C186.208 67.7635 180.451 71.1584 174.697 73.98L152.834 84.7025C143.056 89.2127 120.97 99.1306 110.855 102.721C100.739 106.311 72.5612 113.507 59.7364 116.656Z" fill="url(#paint5_linear)"/>
<path d="M134.264 114.368C120.273 119.992 90.1184 130.765 83.6782 133.466C77.9282 135.879 79.4896 138.166 77.9073 138.581C77.1161 142.066 77.3808 145.557 80.6929 148.921C84.1049 152.387 86.9704 152.409 94.4385 150.174C101.118 148.175 146.201 127.072 150.235 124.237C153.462 121.969 164.633 115.368 169.814 112.351C180.193 104.406 184.46 101.114 187.683 99.3044C191.713 97.0426 196.889 94.7897 197.475 93.0745C198.062 91.3592 199.821 86.2137 194.676 84.4539C193.53 84.445 190.662 84.7668 186.066 86.107C181.47 87.4473 174.547 93.2789 169.939 96.3004L152.67 105.912L134.264 114.368Z" fill="url(#paint6_linear)"/>
<path d="M148.498 126.517C144.464 129.352 99.019 150.783 92.1328 151.876C92.1105 154.742 93.8163 156.475 96.6593 159.363C100.649 162.26 102.92 165.145 111.521 164.638C118.402 164.233 133.732 158.314 139.679 155.112C146.592 150.579 160.995 141.06 163.301 139.243C165.608 137.427 175.415 129.21 179.46 125.037L198.515 106.841L201.98 103.428C202.985 101.716 203.486 97.9364 199.741 96.5315C195.996 95.1267 186.477 102.352 182.476 105.57L169.228 114.066L168.902 114.256C163.548 117.373 151.66 124.295 148.498 126.517Z" fill="url(#paint7_linear)"/>
<path d="M163.288 140.963C160.981 142.78 146.579 152.299 139.666 156.831C135.588 159.027 127.913 161.87 121.268 164.141C121.053 167.277 124.877 171.85 137.267 170.571C149.657 169.291 156.591 166.899 159.085 165.581C161.961 164.265 168.984 160.383 174.066 155.378C179.149 150.373 200.068 128.255 209.893 117.821C211.046 116.874 212.106 113.252 209.373 110.938C206.64 108.624 204.634 106.124 203.686 105.161C199.457 108.568 190.295 117.325 187.519 120.514C184.049 124.5 167.322 138.121 163.288 140.963Z" fill="url(#paint8_linear)"/>
<path d="M219.653 115.604C223.083 116.777 220.185 120.958 219.6 122.482C214.563 131.424 204.257 149.765 203.326 151.592C202.395 153.419 197.53 159.955 195.214 162.995C193.088 166.035 187.572 172.795 182.507 175.508C176.176 178.898 170.418 182.293 156.122 178.169C167.288 167.173 191.124 143.472 197.137 136.64C203.151 129.807 211.591 120.509 215.059 116.714C215.059 116.714 216.223 114.431 219.653 115.604Z" fill="url(#paint9_linear)"/>
<path d="M203.29 156.178C193.993 172.616 180.723 183.902 176.692 186.354C179.932 187.335 191.268 186.457 193.321 185.337C198.501 182.511 200.243 179.658 203.712 175.672C206.488 172.483 213.772 159.508 217.067 153.419C219.982 147.135 226.874 130.45 228.765 123.127C229.263 118.086 226.335 116.229 224.816 115.07C221.9 121.545 212.588 139.74 203.29 156.178Z" fill="url(#paint10_linear)"/>
<path d="M523.376 81.3891C521.626 91.5741 514.099 102.824 500.889 101.301C497.473 100.908 496.138 102.485 496.138 102.485C494.299 106.427 497.299 107.427 499.029 107.434C522.942 110.191 527.969 93.2671 529.946 84.4548C531.011 76.8836 533.451 60.0461 534.694 53.2649C535.937 46.4837 541.131 42.4662 548.226 40.9759C553.243 39.9222 561.234 43.2449 564.475 45.1574C577.483 52.4274 607.884 68.9733 625.421 76.9963C647.342 87.025 689.564 101.125 694.119 101.65C697.763 102.07 704.352 101.291 705.768 100.685C701.849 99.6562 649.904 79.8188 644.407 77.4539C638.91 75.0891 597.07 54.3209 594.192 52.6225C589.33 49.7539 572.16 38.5418 566.094 36.1114C561.241 34.167 555.035 31.9512 549.21 32.4338C537.057 32.7638 527.642 44.3733 526.526 54.0544L523.376 81.3891Z" fill="url(#paint11_linear)"/>
<path d="M625.29 78.1351C647.211 88.1638 686.129 100.894 693.987 102.789C705.214 105.496 725.902 108.2 729.091 108.567C727.405 113.181 716.615 122.709 707.961 121.711C697.143 120.464 631.796 96.7735 623.518 93.5109C616.896 90.901 600.188 82.3581 593.012 77.8762C584.741 72.8835 570.649 61.6655 560.622 58.562C551.709 55.8035 543.819 55.8555 540.125 56.1991C538.877 52.0158 539.854 48.0892 542.511 45.5103C547.294 40.8684 558.381 42.9641 564.344 46.2961C577.352 53.5662 607.753 70.1121 625.29 78.1351Z" fill="url(#paint12_linear)"/>
<path d="M623.873 95.4365C632.151 98.699 697.564 121.82 708.381 123.067C707.717 125.491 700.722 130.456 694.188 131.087C686.02 131.877 683.173 131.549 667.997 128.068C653.207 124.676 624.265 112.062 616.622 108.296C608.979 104.53 590.274 93.2942 580.864 88.1701L558.347 73.3028C552.938 70.1787 548.12 66.9304 541.857 66.2084L535.594 65.4864C536.478 62.8186 537.454 59.3533 541.067 58.0388C544.68 56.7243 556.406 58.0514 562.703 60.5331C569.325 63.143 585.179 74.0881 593.45 79.0809C600.626 83.5627 617.251 92.8265 623.873 95.4365Z" fill="url(#paint13_linear)"/>
<path d="M666.465 131.353C670.887 133.034 678.672 134.755 683.349 135.031C682.45 137.829 681.584 139.328 676.102 142.851C670.619 146.374 665.066 148.503 661.518 149.248C656.788 150.242 646.842 147.441 640.78 143.972C634.718 140.504 606.806 125.053 593.608 117.761L578.016 107.884L563.058 97.5045C558.853 93.9422 549.344 86.3448 544.947 84.4529C540.549 82.5609 537.172 81.8254 536.034 81.6941C535.428 80.2778 534.334 76.4202 534.806 72.32C535.361 70.8451 535.524 67.0939 540.587 67.216C546.915 67.3685 552.215 71.4417 557.581 74.9455L577.969 88.2599C587.123 93.9315 607.832 106.475 617.433 111.275C627.033 116.074 654.121 126.66 666.465 131.353Z" fill="url(#paint14_linear)"/>
<path d="M592.776 119.973C605.974 127.265 634.587 141.643 640.649 145.112C646.061 148.208 644.232 150.288 645.752 150.893C646.111 154.449 645.422 157.881 641.724 160.815C637.914 163.838 635.067 163.51 627.928 160.379C621.542 157.578 579.376 131.123 575.719 127.816C572.793 125.171 562.513 117.254 557.739 113.626C548.409 104.471 544.576 100.683 541.598 98.4929C537.875 95.7555 533.013 92.8868 532.641 91.1128C532.268 89.3387 531.151 84.0167 536.472 82.8988C537.61 83.0301 540.418 83.7001 544.815 85.592C549.213 87.484 555.371 94.1181 559.576 97.6803L575.541 109.331L592.776 119.973Z" fill="url(#paint15_linear)"/>
<path d="M577.164 130.291C580.821 133.598 623.307 160.423 630.008 162.35C629.68 165.197 627.775 166.709 624.601 169.228C620.287 171.616 617.681 174.201 609.206 172.647C602.426 171.403 587.935 163.655 582.423 159.749C576.116 154.406 562.984 143.198 560.917 141.113C558.849 139.028 550.12 129.674 546.616 125.038L529.927 104.649L526.904 100.838C526.116 99.0163 526.081 95.2036 529.969 94.267C533.858 93.3304 542.423 101.666 546 105.348L558.111 115.4L558.411 115.628C563.345 119.377 574.298 127.7 577.164 130.291Z" fill="url(#paint16_linear)"/>
<path d="M560.72 142.821C562.787 144.906 575.919 156.114 582.226 161.458C586.005 164.135 593.275 167.896 599.593 170.961C599.423 174.101 595.069 178.172 582.929 175.388C570.788 172.603 564.198 169.381 561.884 167.768C559.19 166.111 552.694 161.4 548.262 155.811C543.829 150.222 525.769 125.712 517.293 114.156C516.263 113.076 515.654 109.351 518.65 107.388C521.645 105.425 523.941 103.189 524.999 102.35C528.781 106.248 536.804 116.059 539.169 119.563C542.126 123.944 557.063 139.508 560.72 142.821Z" fill="url(#paint17_linear)"/>
<path d="M507.876 110.762C504.329 111.507 506.694 116.012 507.089 117.596C510.995 127.087 518.983 146.55 519.684 148.477C520.385 150.404 524.415 157.486 526.342 160.786C528.08 164.063 532.729 171.447 537.424 174.758C543.294 178.897 548.593 182.97 563.287 180.625C553.548 168.346 532.787 141.909 527.653 134.393C522.519 126.876 515.278 116.617 512.3 112.426C512.3 112.426 511.423 110.017 507.876 110.762Z" fill="url(#paint18_linear)"/>
<path d="M519.159 153.033C526.379 170.484 538.17 183.307 541.871 186.234C538.535 186.812 527.391 184.554 525.491 183.192C520.695 179.754 519.315 176.71 516.358 172.329C513.993 168.825 508.349 155.057 505.822 148.61C503.697 142.018 498.895 124.615 497.913 117.115C498.035 112.051 501.168 110.566 502.818 109.602C504.921 116.384 511.939 135.582 519.159 153.033Z" fill="url(#paint19_linear)"/>
<defs>
<linearGradient id="paint0_linear" x1="364.037" y1="87.3039" x2="364.037" y2="358.115" gradientUnits="userSpaceOnUse">
<stop stop-color="#FCBC0B"/>
<stop offset="1" stop-color="#FDCD49" stop-opacity="0.93"/>
</linearGradient>
<linearGradient id="paint1_linear" x1="363.881" y1="0.467773" x2="363.881" y2="373.108" gradientUnits="userSpaceOnUse">
<stop stop-color="#FCBC0B"/>
<stop offset="1" stop-color="#FDCD49" stop-opacity="0.93"/>
</linearGradient>
<linearGradient id="paint2_linear" x1="116.504" y1="32.367" x2="192.15" y2="121.904" gradientUnits="userSpaceOnUse">
<stop stop-color="#7225D0"/>
<stop offset="1" stop-color="#6813D0" stop-opacity="0.8"/>
</linearGradient>
<linearGradient id="paint3_linear" x1="116.504" y1="32.367" x2="192.15" y2="121.904" gradientUnits="userSpaceOnUse">
<stop stop-color="#7225D0"/>
<stop offset="1" stop-color="#6813D0" stop-opacity="0.8"/>
</linearGradient>
<linearGradient id="paint4_linear" x1="116.504" y1="32.367" x2="192.15" y2="121.904" gradientUnits="userSpaceOnUse">
<stop stop-color="#7225D0"/>
<stop offset="1" stop-color="#6813D0" stop-opacity="0.8"/>
</linearGradient>
<linearGradient id="paint5_linear" x1="116.504" y1="32.367" x2="192.15" y2="121.904" gradientUnits="userSpaceOnUse">
<stop stop-color="#7225D0"/>
<stop offset="1" stop-color="#6813D0" stop-opacity="0.8"/>
</linearGradient>
<linearGradient id="paint6_linear" x1="116.504" y1="32.367" x2="192.15" y2="121.904" gradientUnits="userSpaceOnUse">
<stop stop-color="#7225D0"/>
<stop offset="1" stop-color="#6813D0" stop-opacity="0.8"/>
</linearGradient>
<linearGradient id="paint7_linear" x1="116.504" y1="32.367" x2="192.15" y2="121.904" gradientUnits="userSpaceOnUse">
<stop stop-color="#7225D0"/>
<stop offset="1" stop-color="#6813D0" stop-opacity="0.8"/>
</linearGradient>
<linearGradient id="paint8_linear" x1="116.504" y1="32.367" x2="192.15" y2="121.904" gradientUnits="userSpaceOnUse">
<stop stop-color="#7225D0"/>
<stop offset="1" stop-color="#6813D0" stop-opacity="0.8"/>
</linearGradient>
<linearGradient id="paint9_linear" x1="116.504" y1="32.367" x2="192.15" y2="121.904" gradientUnits="userSpaceOnUse">
<stop stop-color="#7225D0"/>
<stop offset="1" stop-color="#6813D0" stop-opacity="0.8"/>
</linearGradient>
<linearGradient id="paint10_linear" x1="116.504" y1="32.367" x2="192.15" y2="121.904" gradientUnits="userSpaceOnUse">
<stop stop-color="#7225D0"/>
<stop offset="1" stop-color="#6813D0" stop-opacity="0.8"/>
</linearGradient>
<linearGradient id="paint11_linear" x1="612.326" y1="32.3668" x2="687.645" y2="122.258" gradientUnits="userSpaceOnUse">
<stop stop-color="#7225D0"/>
<stop offset="1" stop-color="#6813D0" stop-opacity="0.8"/>
</linearGradient>
<linearGradient id="paint12_linear" x1="612.326" y1="32.3668" x2="687.645" y2="122.258" gradientUnits="userSpaceOnUse">
<stop stop-color="#7225D0"/>
<stop offset="1" stop-color="#6813D0" stop-opacity="0.8"/>
</linearGradient>
<linearGradient id="paint13_linear" x1="612.326" y1="32.3668" x2="687.645" y2="122.258" gradientUnits="userSpaceOnUse">
<stop stop-color="#7225D0"/>
<stop offset="1" stop-color="#6813D0" stop-opacity="0.8"/>
</linearGradient>
<linearGradient id="paint14_linear" x1="612.326" y1="32.3668" x2="687.645" y2="122.258" gradientUnits="userSpaceOnUse">
<stop stop-color="#7225D0"/>
<stop offset="1" stop-color="#6813D0" stop-opacity="0.8"/>
</linearGradient>
<linearGradient id="paint15_linear" x1="612.326" y1="32.3668" x2="687.645" y2="122.258" gradientUnits="userSpaceOnUse">
<stop stop-color="#7225D0"/>
<stop offset="1" stop-color="#6813D0" stop-opacity="0.8"/>
</linearGradient>
<linearGradient id="paint16_linear" x1="612.326" y1="32.3668" x2="687.645" y2="122.258" gradientUnits="userSpaceOnUse">
<stop stop-color="#7225D0"/>
<stop offset="1" stop-color="#6813D0" stop-opacity="0.8"/>
</linearGradient>
<linearGradient id="paint17_linear" x1="612.326" y1="32.3668" x2="687.645" y2="122.258" gradientUnits="userSpaceOnUse">
<stop stop-color="#7225D0"/>
<stop offset="1" stop-color="#6813D0" stop-opacity="0.8"/>
</linearGradient>
<linearGradient id="paint18_linear" x1="612.326" y1="32.3668" x2="687.645" y2="122.258" gradientUnits="userSpaceOnUse">
<stop stop-color="#7225D0"/>
<stop offset="1" stop-color="#6813D0" stop-opacity="0.8"/>
</linearGradient>
<linearGradient id="paint19_linear" x1="612.326" y1="32.3668" x2="687.645" y2="122.258" gradientUnits="userSpaceOnUse">
<stop stop-color="#7225D0"/>
<stop offset="1" stop-color="#6813D0" stop-opacity="0.8"/>
</linearGradient>
</defs>
</svg>
