<svg width="301" height="108" viewBox="0 0 301 108" fill="none" xmlns="http://www.w3.org/2000/svg">
<path d="M1 69.6792V4.8875L9.20695 1H9.63889V31.4089H35.1236V4.8875L43.3306 1H43.7625V65.7917L35.5556 69.6792H35.1236V39.2703H9.63889V65.7917L1.43194 69.6792H1Z" fill="url(#paint0_linear)"/>
<path d="M71.8389 67.9514C63.2 67.9514 58.8806 63.632 58.8806 54.9931V33.3959C58.8806 24.757 63.2 20.4375 71.8389 20.4375H81.7737C90.4126 20.4375 94.732 24.757 94.732 33.3959V35.6852L67.6491 56.6345C68.0522 58.9958 69.4488 60.1764 71.8389 60.1764H81.7737C84.6533 60.1764 86.0931 58.4486 86.0931 54.9931V52.7038L94.3001 48.8163H94.732V54.9931C94.732 63.632 90.4126 67.9514 81.7737 67.9514H71.8389ZM67.5195 47.6068L86.0499 32.6615C85.8771 29.6955 84.4517 28.2125 81.7737 28.2125H71.8389C68.9593 28.2125 67.5195 29.9403 67.5195 33.3959V47.6068Z" fill="url(#paint1_linear)"/>
<path d="M107.69 69.6792V33.3959C107.69 24.757 112.01 20.4375 120.649 20.4375H131.447V20.8695L127.992 28.2125H120.649C117.769 28.2125 116.329 29.9403 116.329 33.3959V65.7917L108.122 69.6792H107.69Z" fill="url(#paint2_linear)"/>
<path d="M138.79 69.6792V33.3959C138.79 24.757 143.11 20.4375 151.749 20.4375H161.683C165.657 20.4375 168.537 21.503 170.322 23.6339C172.223 21.503 175.103 20.4375 178.961 20.4375H188.896C197.535 20.4375 201.854 24.757 201.854 33.3959V65.7917L193.647 69.6792H193.215V33.3959C193.215 29.9403 191.776 28.2125 188.896 28.2125H178.961C176.082 28.2125 174.642 29.9403 174.642 33.3959V65.7917L166.435 69.6792H166.003V33.3959C166.003 29.9403 164.563 28.2125 161.683 28.2125H151.749C148.869 28.2125 147.429 29.9403 147.429 33.3959V65.7917L139.222 69.6792H138.79Z" fill="url(#paint3_linear)"/>
<path d="M227.771 67.9514C219.132 67.9514 214.813 63.632 214.813 54.9931V33.3959C214.813 24.757 219.132 20.4375 227.771 20.4375H237.706C246.345 20.4375 250.664 24.757 250.664 33.3959V35.6852L223.581 56.6345C223.984 58.9958 225.381 60.1764 227.771 60.1764H237.706C240.585 60.1764 242.025 58.4486 242.025 54.9931V52.7038L250.232 48.8163H250.664V54.9931C250.664 63.632 246.345 67.9514 237.706 67.9514H227.771ZM223.452 47.6068L241.982 32.6615C241.809 29.6955 240.384 28.2125 237.706 28.2125H227.771C224.891 28.2125 223.452 29.9403 223.452 33.3959V47.6068Z" fill="url(#paint4_linear)"/>
<path d="M275.285 67.9514C266.646 67.9514 262.327 63.632 262.327 54.9931V53.4381L270.533 49.5506H270.965V54.9931C270.965 58.4486 272.405 60.1764 275.285 60.1764H285.22C288.099 60.1764 289.539 58.4486 289.539 54.9931V51.5807C289.539 48.1252 288.099 46.3974 285.22 46.3974H277.099C268.46 46.3974 264.141 42.0635 264.141 33.3959C264.141 24.757 268.46 20.4375 277.099 20.4375H282.153C290.792 20.4375 295.111 23.9219 295.111 30.8906L286.904 34.7781H286.472V33.3959C286.472 29.9403 285.032 28.2125 282.153 28.2125H277.099C274.219 28.2125 272.78 29.9403 272.78 33.3959C272.78 36.8802 274.219 38.6224 277.099 38.6224H285.22C293.859 38.6224 298.178 42.9418 298.178 51.5807V54.9931C298.178 63.632 293.859 67.9514 285.22 67.9514H275.285Z" fill="url(#paint5_linear)"/>
<path d="M1 69.6792V4.8875L9.20695 1H9.63889V31.4089H35.1236V4.8875L43.3306 1H43.7625V65.7917L35.5556 69.6792H35.1236V39.2703H9.63889V65.7917L1.43194 69.6792H1Z" stroke="#F5F5F5" stroke-opacity="0.5" stroke-width="0.5"/>
<path d="M71.8389 67.9514C63.2 67.9514 58.8806 63.632 58.8806 54.9931V33.3959C58.8806 24.757 63.2 20.4375 71.8389 20.4375H81.7737C90.4126 20.4375 94.732 24.757 94.732 33.3959V35.6852L67.6491 56.6345C68.0522 58.9958 69.4488 60.1764 71.8389 60.1764H81.7737C84.6533 60.1764 86.0931 58.4486 86.0931 54.9931V52.7038L94.3001 48.8163H94.732V54.9931C94.732 63.632 90.4126 67.9514 81.7737 67.9514H71.8389ZM67.5195 47.6068L86.0499 32.6615C85.8771 29.6955 84.4517 28.2125 81.7737 28.2125H71.8389C68.9593 28.2125 67.5195 29.9403 67.5195 33.3959V47.6068Z" stroke="#F5F5F5" stroke-opacity="0.5" stroke-width="0.5"/>
<path d="M107.69 69.6792V33.3959C107.69 24.757 112.01 20.4375 120.649 20.4375H131.447V20.8695L127.992 28.2125H120.649C117.769 28.2125 116.329 29.9403 116.329 33.3959V65.7917L108.122 69.6792H107.69Z" stroke="#F5F5F5" stroke-opacity="0.5" stroke-width="0.5"/>
<path d="M138.79 69.6792V33.3959C138.79 24.757 143.11 20.4375 151.749 20.4375H161.683C165.657 20.4375 168.537 21.503 170.322 23.6339C172.223 21.503 175.103 20.4375 178.961 20.4375H188.896C197.535 20.4375 201.854 24.757 201.854 33.3959V65.7917L193.647 69.6792H193.215V33.3959C193.215 29.9403 191.776 28.2125 188.896 28.2125H178.961C176.082 28.2125 174.642 29.9403 174.642 33.3959V65.7917L166.435 69.6792H166.003V33.3959C166.003 29.9403 164.563 28.2125 161.683 28.2125H151.749C148.869 28.2125 147.429 29.9403 147.429 33.3959V65.7917L139.222 69.6792H138.79Z" stroke="#F5F5F5" stroke-opacity="0.5" stroke-width="0.5"/>
<path d="M227.771 67.9514C219.132 67.9514 214.813 63.632 214.813 54.9931V33.3959C214.813 24.757 219.132 20.4375 227.771 20.4375H237.706C246.345 20.4375 250.664 24.757 250.664 33.3959V35.6852L223.581 56.6345C223.984 58.9958 225.381 60.1764 227.771 60.1764H237.706C240.585 60.1764 242.025 58.4486 242.025 54.9931V52.7038L250.232 48.8163H250.664V54.9931C250.664 63.632 246.345 67.9514 237.706 67.9514H227.771ZM223.452 47.6068L241.982 32.6615C241.809 29.6955 240.384 28.2125 237.706 28.2125H227.771C224.891 28.2125 223.452 29.9403 223.452 33.3959V47.6068Z" stroke="#F5F5F5" stroke-opacity="0.5" stroke-width="0.5"/>
<path d="M275.285 67.9514C266.646 67.9514 262.327 63.632 262.327 54.9931V53.4381L270.533 49.5506H270.965V54.9931C270.965 58.4486 272.405 60.1764 275.285 60.1764H285.22C288.099 60.1764 289.539 58.4486 289.539 54.9931V51.5807C289.539 48.1252 288.099 46.3974 285.22 46.3974H277.099C268.46 46.3974 264.141 42.0635 264.141 33.3959C264.141 24.757 268.46 20.4375 277.099 20.4375H282.153C290.792 20.4375 295.111 23.9219 295.111 30.8906L286.904 34.7781H286.472V33.3959C286.472 29.9403 285.032 28.2125 282.153 28.2125H277.099C274.219 28.2125 272.78 29.9403 272.78 33.3959C272.78 36.8802 274.219 38.6224 277.099 38.6224H285.22C293.859 38.6224 298.178 42.9418 298.178 51.5807V54.9931C298.178 63.632 293.859 67.9514 285.22 67.9514H275.285Z" stroke="#F5F5F5" stroke-opacity="0.5" stroke-width="0.5"/>
<path d="M83.2999 98.6579H87.7633C89.2031 98.6579 89.923 97.842 89.923 96.2102V84.5477C89.923 82.9159 89.2031 82.1 87.7633 82.1H83.2999C81.8601 82.1 81.1401 82.9159 81.1401 84.5477V96.2102C81.1401 97.842 81.8601 98.6579 83.2999 98.6579ZM83.2999 101.25C79.9403 101.25 78.2605 99.5698 78.2605 96.2102V84.5477C78.2605 81.1881 79.9403 79.5084 83.2999 79.5084H87.7633C91.1229 79.5084 92.8027 81.1881 92.8027 84.5477V96.2102C92.8027 99.5698 91.1229 101.25 87.7633 101.25H83.2999Z" fill="#333333"/>
<path d="M102.881 101.25C102.229 101.25 101.749 101.101 101.442 100.803V106.433L98.7059 107.729H98.5619V89.7311C98.5619 86.8514 100.002 85.4116 102.881 85.4116H106.193C109.073 85.4116 110.512 86.8514 110.512 89.7311V96.9301C110.512 99.8098 109.073 101.25 106.193 101.25H102.881ZM102.881 98.6579H106.193C107.153 98.6579 107.633 98.082 107.633 96.9301V89.7311C107.633 88.5792 107.153 88.0033 106.193 88.0033H102.881C101.921 88.0033 101.442 88.5792 101.442 89.7311V96.9301C101.442 98.082 101.921 98.6579 102.881 98.6579Z" fill="#333333"/>
<path d="M119.151 101.25C116.272 101.25 114.832 99.8098 114.832 96.9301V89.7311C114.832 86.8514 116.272 85.4116 119.151 85.4116H122.463C125.342 85.4116 126.782 86.8514 126.782 89.7311V90.4942L117.755 97.4773C117.889 98.2644 118.355 98.6579 119.151 98.6579H122.463C123.423 98.6579 123.903 98.082 123.903 96.9301V96.167L126.638 94.8712H126.782V96.9301C126.782 99.8098 125.342 101.25 122.463 101.25H119.151ZM117.711 94.468L123.888 89.4863C123.831 88.4976 123.356 88.0033 122.463 88.0033H119.151C118.191 88.0033 117.711 88.5792 117.711 89.7311V94.468Z" fill="#333333"/>
<path d="M131.102 101.826V89.7311C131.102 86.8514 132.542 85.4116 135.421 85.4116H138.733C141.612 85.4116 143.052 86.8514 143.052 89.7311V100.53L140.317 101.826H140.173V89.7311C140.173 88.5792 139.693 88.0033 138.733 88.0033H135.421C134.461 88.0033 133.981 88.5792 133.981 89.7311V100.53L131.246 101.826H131.102Z" fill="#333333"/>
<path d="M164.649 101.25C161.29 101.25 159.61 99.5698 159.61 96.2102V84.5477C159.61 81.1881 161.29 79.5084 164.649 79.5084H169.113C172.472 79.5084 174.152 81.1881 174.152 84.5477V86.1315L171.417 87.4273H171.273V84.5477C171.273 82.9159 170.553 82.1 169.113 82.1H164.649C163.21 82.1 162.49 82.9159 162.49 84.5477V96.2102C162.49 97.842 163.21 98.6579 164.649 98.6579H169.113C170.553 98.6579 171.273 97.842 171.273 96.2102V94.6264L174.008 93.3306H174.152V96.2102C174.152 99.5698 172.472 101.25 169.113 101.25H164.649Z" fill="#333333"/>
<path d="M183.511 98.6579H186.823C187.782 98.6579 188.262 98.082 188.262 96.9301V89.7311C188.262 88.5792 187.782 88.0033 186.823 88.0033H183.511C182.551 88.0033 182.071 88.5792 182.071 89.7311V96.9301C182.071 98.082 182.551 98.6579 183.511 98.6579ZM183.511 101.25C180.631 101.25 179.192 99.8098 179.192 96.9301V89.7311C179.192 86.8514 180.631 85.4116 183.511 85.4116H186.823C189.702 85.4116 191.142 86.8514 191.142 89.7311V96.9301C191.142 99.8098 189.702 101.25 186.823 101.25H183.511Z" fill="#333333"/>
<path d="M195.462 101.826V89.7311C195.462 86.8514 196.901 85.4116 199.781 85.4116H203.093C204.417 85.4116 205.377 85.7668 205.972 86.4771C206.606 85.7668 207.566 85.4116 208.852 85.4116H212.163C215.043 85.4116 216.483 86.8514 216.483 89.7311V100.53L213.747 101.826H213.603V89.7311C213.603 88.5792 213.123 88.0033 212.163 88.0033H208.852C207.892 88.0033 207.412 88.5792 207.412 89.7311V100.53L204.676 101.826H204.532V89.7311C204.532 88.5792 204.052 88.0033 203.093 88.0033H199.781C198.821 88.0033 198.341 88.5792 198.341 89.7311V100.53L195.605 101.826H195.462Z" fill="#333333"/>
<path d="M220.802 101.826V89.7311C220.802 86.8514 222.242 85.4116 225.122 85.4116H228.433C229.758 85.4116 230.718 85.7668 231.313 86.4771C231.946 85.7668 232.906 85.4116 234.193 85.4116H237.504C240.384 85.4116 241.824 86.8514 241.824 89.7311V100.53L239.088 101.826H238.944V89.7311C238.944 88.5792 238.464 88.0033 237.504 88.0033H234.193C233.233 88.0033 232.753 88.5792 232.753 89.7311V100.53L230.017 101.826H229.873V89.7311C229.873 88.5792 229.393 88.0033 228.433 88.0033H225.122C224.162 88.0033 223.682 88.5792 223.682 89.7311V100.53L220.946 101.826H220.802Z" fill="#333333"/>
<path d="M250.462 101.25C247.583 101.25 246.143 99.8098 246.143 96.9301V89.7311C246.143 86.8514 247.583 85.4116 250.462 85.4116H253.774C256.654 85.4116 258.093 86.8514 258.093 89.7311V90.4942L249.066 97.4773C249.2 98.2644 249.666 98.6579 250.462 98.6579H253.774C254.734 98.6579 255.214 98.082 255.214 96.9301V96.167L257.95 94.8712H258.093V96.9301C258.093 99.8098 256.654 101.25 253.774 101.25H250.462ZM249.023 94.468L255.199 89.4863C255.142 88.4976 254.667 88.0033 253.774 88.0033H250.462C249.503 88.0033 249.023 88.5792 249.023 89.7311V94.468Z" fill="#333333"/>
<path d="M262.413 101.826V89.7311C262.413 86.8514 263.853 85.4116 266.732 85.4116H270.332V85.5556L269.18 88.0033H266.732C265.773 88.0033 265.293 88.5792 265.293 89.7311V100.53L262.557 101.826H262.413Z" fill="#333333"/>
<path d="M277.099 101.25C274.219 101.25 272.78 99.8098 272.78 96.9301V89.7311C272.78 86.8514 274.219 85.4116 277.099 85.4116H280.411C283.29 85.4116 284.73 86.8514 284.73 89.7311V90.4942L281.994 91.79H281.85V89.7311C281.85 88.5792 281.371 88.0033 280.411 88.0033H277.099C276.139 88.0033 275.659 88.5792 275.659 89.7311V96.9301C275.659 98.082 276.139 98.6579 277.099 98.6579H280.411C281.371 98.6579 281.85 98.082 281.85 96.9301V96.167L284.586 94.8712H284.73V96.9301C284.73 99.8098 283.29 101.25 280.411 101.25H277.099Z" fill="#333333"/>
<path d="M293.369 101.25C290.489 101.25 289.05 99.8098 289.05 96.9301V89.7311C289.05 86.8514 290.489 85.4116 293.369 85.4116H296.681C299.56 85.4116 301 86.8514 301 89.7311V90.4942L291.972 97.4773C292.107 98.2644 292.572 98.6579 293.369 98.6579H296.681C297.64 98.6579 298.12 98.082 298.12 96.9301V96.167L300.856 94.8712H301V96.9301C301 99.8098 299.56 101.25 296.681 101.25H293.369ZM291.929 94.468L298.106 89.4863C298.048 88.4976 297.573 88.0033 296.681 88.0033H293.369C292.409 88.0033 291.929 88.5792 291.929 89.7311V94.468Z" fill="#333333"/>
<defs>
<linearGradient id="paint0_linear" x1="149.589" y1="1" x2="149.589" y2="69.6792" gradientUnits="userSpaceOnUse">
<stop stop-color="#FCBC0B"/>
<stop offset="1" stop-color="#FDCD49" stop-opacity="0.93"/>
</linearGradient>
<linearGradient id="paint1_linear" x1="149.589" y1="1" x2="149.589" y2="69.6792" gradientUnits="userSpaceOnUse">
<stop stop-color="#FCBC0B"/>
<stop offset="1" stop-color="#FDCD49" stop-opacity="0.93"/>
</linearGradient>
<linearGradient id="paint2_linear" x1="149.589" y1="1" x2="149.589" y2="69.6792" gradientUnits="userSpaceOnUse">
<stop stop-color="#FCBC0B"/>
<stop offset="1" stop-color="#FDCD49" stop-opacity="0.93"/>
</linearGradient>
<linearGradient id="paint3_linear" x1="149.589" y1="1" x2="149.589" y2="69.6792" gradientUnits="userSpaceOnUse">
<stop stop-color="#FCBC0B"/>
<stop offset="1" stop-color="#FDCD49" stop-opacity="0.93"/>
</linearGradient>
<linearGradient id="paint4_linear" x1="149.589" y1="1" x2="149.589" y2="69.6792" gradientUnits="userSpaceOnUse">
<stop stop-color="#FCBC0B"/>
<stop offset="1" stop-color="#FDCD49" stop-opacity="0.93"/>
</linearGradient>
<linearGradient id="paint5_linear" x1="149.589" y1="1" x2="149.589" y2="69.6792" gradientUnits="userSpaceOnUse">
<stop stop-color="#FCBC0B"/>
<stop offset="1" stop-color="#FDCD49" stop-opacity="0.93"/>
</linearGradient>
</defs>
</svg>
